<?xml version="1.0" encoding="utf-8"?>
<!-- Generator: Adobe Illustrator 26.0.3, SVG Export Plug-In . SVG Version: 6.00 Build 0)  -->
<svg version="1.0" id="Layer_1" xmlns="http://www.w3.org/2000/svg" xmlns:xlink="http://www.w3.org/1999/xlink" x="0px" y="0px"
	 viewBox="0 0 1169.4 870.5" style="enable-background:new 0 0 1169.4 870.5;" xml:space="preserve">
<style type="text/css">
	.st0{fill-rule:evenodd;clip-rule:evenodd;fill:#FFFADB;}
	.st1{fill:#005834;}
	.st2{fill-rule:evenodd;clip-rule:evenodd;fill:#EE7D00;}
	.st3{fill:#FFFFFF;}
	.st4{fill-rule:evenodd;clip-rule:evenodd;fill:#005834;}
	.st5{fill-rule:evenodd;clip-rule:evenodd;fill:#009540;}
	.st6{fill-rule:evenodd;clip-rule:evenodd;fill:#1D1D1B;}
	.st7{fill-rule:evenodd;clip-rule:evenodd;fill:#E20613;}
	.st8{fill-rule:evenodd;clip-rule:evenodd;fill:#009EE2;}
	.st9{fill:#009EE2;}
	.st10{fill-rule:evenodd;clip-rule:evenodd;fill:#AC4581;}
	.st11{fill-rule:evenodd;clip-rule:evenodd;fill:#FFFFFF;}
	.st12{fill-rule:evenodd;clip-rule:evenodd;fill:#AD4523;}
	.st13{fill:#1D1D1B;}
	.st14{fill-rule:evenodd;clip-rule:evenodd;fill:#FFEC00;}
</style>
<path class="st0" d="M583.5,77.4c168.1,0,304.3,136.1,304.3,305.5c0,166.9-136.1,303.1-304.3,303.1
	c-166.9,0-304.3-136.2-304.3-303.1C279.2,213.6,416.6,77.4,583.5,77.4z"/>
<path class="st1" d="M583.5,692.5c-171.4,0-310.8-138.9-310.8-309.6c0-172,139.4-312,310.8-312s310.8,140,310.8,312
	C894.3,553.6,754.9,692.5,583.5,692.5z M583.5,83.9c-164.2,0-297.8,134.1-297.8,298.9c0,163.5,133.6,296.6,297.8,296.6
	s297.8-133,297.8-296.6C881.3,218.1,747.7,83.9,583.5,83.9L583.5,83.9z"/>
<path class="st2" d="M583.5,188.7c106.6,0,193,87.6,193,194.2c0,104.2-86.4,191.8-193,191.8c-105.4,0-191.8-87.6-191.8-191.8
	C391.7,276.3,478.1,188.7,583.5,188.7z"/>
<path class="st3" d="M583.5,581.2c-107.5,0-198.3-90.8-198.3-198.3c0-110.7,89-200.7,198.3-200.7c110,0,199.5,90,199.5,200.7
	C783,492.2,693.5,581.2,583.5,581.2z M583.5,195.2c-102.2,0-185.3,84.2-185.3,187.6c0,100.4,84.9,185.3,185.3,185.3
	c102.8,0,186.5-83.1,186.5-185.3C770,279.4,686.3,195.2,583.5,195.2z"/>
<path class="st4" d="M261.5,606.6c63.9,110.1,184.7,183.5,322,183.5S844,714.4,907.9,605.5l-78.1-43.8
	c-72.2,95.9-148,130.2-246.3,126.7c-100.6,0-188.3-41.4-243.9-125.5L261.5,606.6z"/>
<path class="st5" d="M312.4,691.9c162.2,148,415.6,133.8,564.8-24.9l-72.2-61.6c-122,108.9-306.6,118.4-425,13L312.4,691.9z"/>
<path class="st1" d="M580.5,799.6c-97.4,0-194.7-34.4-271.2-104.2l-3.4-3.1l73.7-80.2l3.4,3c115.4,102.8,295.5,97.2,418.9-13l3-2.7
	l79,67.3l-3.3,3.5C799.8,756,690,799.6,580.5,799.6z M318.9,691.6c157.8,140.6,403.2,129.8,551.5-24.2L805,611.6
	c-125.6,109.7-306.6,115.3-424.8,13.4L318.9,691.6z"/>
<path class="st6" d="M832.1,437.3v-4.7c1.3,0.2,2.6-0.3,3.5-1.2c0.6-0.6,1.1-1.5,1.2-2.4c0-2.4,0-3.5-3.5-4.7
	c-1.2-1.2-4.7-1.2-9.5,0v-3.6c5.9-2.4,10.7-3.5,14.2-2.4c4.7,1.2,5.9,4.7,4.7,9.5v1.2c-1.2,2.4-2.4,4.7-4.7,5.9
	C836.4,436.5,834.3,437.3,832.1,437.3 M815.6,431.4l1.2-9.5l-7.1-1.2c-2.4,0-2.4-1.2-2.4-3.5l2.4-11.8v-3.5c0-1.2-2.4-2.4-3.5-2.4
	s-2.4,1.2-3.5,4.7c-0.1,1.7,0.3,3.3,1.2,4.7v5.9c0,2.4-1.2,3.5-4.7,5.9c-2.4,1.2-5.9,2.4-7.1,1.2c-3.5,0-4.7-2.4-7.1-5.9
	c-1.2-2.4-1.2-5.9-1.2-9.5c1.2-3.6,3.5-7.1,5.9-10.6c1.2-2.4,5.9-7.1,10.7-10.7l1.2,3.5c-5.9,4.7-10.7,10.7-10.7,17.8
	c-1.2,2.4-1.2,4.7,0,5.9c0.9,2.1,2.6,3.8,4.7,4.7c1.2,0,1.2-1.2,1.2-2.4c1.2,0,0-2.4,0-4.7v-4.7c0-3.5,2.4-5.9,4.7-8.3
	c2.1-3.1,5.7-4.9,9.5-4.7c2.4,1.2,3.5,2.4,3.5,4.7c1.2,2.4,1.2,4.7,1.2,8.3l-1.2,7.1l3.5,1.2l3.5-26l7.1-3.5l-5.9,43.8L815.6,431.4z
	 M829.8,375.8v-2.4c10.7-7.1,15.4-13,15.4-18.9v-2.4l7.1-3.5c0.9,0.9,1.3,2.2,1.2,3.5c0,4.7-3.5,9.5-9.5,14.2
	C840.4,369.9,835.7,372.2,829.8,375.8L829.8,375.8z M822.7,387.6l1.2-10.6h-35.5l4.7-8.3l32-1.2v-5.9l7.1-4.7l-3.5,27.2L822.7,387.6
	z M822.7,336.7l-3.5-23.7l4.7-4.7l8.3,48.5l-7.1,4.7v-10.7l-34.4,5.9l2.4-9.5l30.8-4.7L822.7,336.7z M800.2,334.3l10.7-4.7
	c0-2.4-1.2-3.6-3.6-4.8h-2.4c-2.4,0-3.5,1.2-4.7,2.4s-1.2,3.5-1.2,4.7S799,334.3,800.2,334.3L800.2,334.3z M806.1,342.6l5.9-1.2
	c0-1.2,1.2-3.5,1.2-4.7v-5.9l-11.8,5.9v1.2c0,1.2,1.2,2.4,1.2,3.5C803.7,341.4,804.9,342.6,806.1,342.6L806.1,342.6z M800.2,346.2
	c-3.5-2.4-4.8-5.9-5.9-10.7c-1.2-3.5,0-7.1,1.2-10.7c2.4-4.7,5.9-7.1,9.5-7.1c4.7-1.2,5.9,0,9.5,3.5c2.4,2.4,3.5,5.9,4.7,9.5
	c1.2,4.7-1.2,9.5-3.5,13L800.2,346.2z M809.6,274l-4.7-8.3l-32,15.4l1.2-9.5l27.2-13l-3.5-5.9l4.7-5.9l9.5,21.3L809.6,274z
	 M799,252.7l-3.6-5.9l-30.7,17.7V255l26-15.4l-3.5-7.1l3.5-7.1l10.7,21.3L799,252.7z M777.7,225.4c2.4-2.4,2.4-4.7,0-7.1
	c-1.2-1.2-2.4-3.6-3.5-3.6c-1.4-1.2-3.4-1.2-4.7,0c0,2.4-1.2,3.6-1.2,5.9c-1,0.7-1.2,2.1-0.4,3.1c0.1,0.2,0.3,0.3,0.4,0.4
	c0,1.2,2.4,1.2,4.7,1.2H777.7z M777.7,247.9c-2.4,0-5.9-2.4-8.3-5.9c-2.2-3.1-3.5-6.8-3.5-10.7c-5.9-4.7-10.7-5.9-13-3.6
	c-1.2,0-1.2,2.4-1.2,3.6v3.6l1.2,1.2c1.2,2.4,2.4,2.4,4.7,1.2c0.7-0.6,1.1-1.5,1.2-2.4c1.2-1.2,2.4-1.2,3.5,1.2
	c2.4,1.2,2.4,3.6,2.4,5.9c1.2,2.4,0,3.6,0,4.7c-2.4,1.2-4.7,1.2-5.9,0l-4.7,13l-3.5-2.4l3.5-13c-1.2,0-2.4-1.2-3.5-2.4
	c-2.4-3.5-3.7-7.6-3.6-11.8c0-4.7,0-8.3,3.6-10.6c1.2-2.4,3.5-2.4,7.1-1.2l7.1,3.6c0-7.1,0-10.7,1.2-13c2.4-2.4,5.9-2.4,8.3-2.4
	c2.6,1.2,5,2.8,7.1,4.7c2.4,2.4,2.4,7.1,2.4,11.8c0,3.6-1.2,7.1-4.7,8.3c-2.4,2.4-5.9,2.4-9.5,0l1.2,2.4c1.2,2.4,3.5,3.6,5.9,5.9
	c1.2,1.2,5.9,4.7,7.1,4.7L777.7,247.9z M768.2,200.6l-7.1-5.9l-23.7,24.9l-3.5-9.5l22.5-21.3l-4.7-3.6l3.5-5.9l14.2,14.2
	L768.2,200.6z M737.4,180.4c0-1.2,1.2-2.4,1.2-3.6c0-2.4-1.2-3.6-2.4-3.6c-1.2-1.2-2.4-2.4-3.5-2.4c-1.2,1.2-2.4,2.4-3.5,3.6
	s-1.2,3.6-1.2,5.9c0.1,1.6,0.5,3.3,1.2,4.8c1.7,0.1,3.3-0.4,4.7-1.2l1.2-1.2L737.4,180.4z M751.7,185.2l-9.5-8.3
	c0,5.9,0,9.5-2.4,11.9c-3.5,4.7-10.7,5.9-22.5,4.7l-1.2,11.8l-3.5-1.2v-13l-1.2-1.2c-3.5-2.4-3.5-4.7-2.4-8.3c0-0.6,0.5-1.2,1.1-1.2
	c0,0,0,0,0.1,0c1.2-2.4,2.4-2.4,4.7-1.2c1.2,1.2,2.4,2.4,2.4,4.7c0,1.2,0,1.2,2.4,2.4c0.6,0.6,1.5,1.1,2.4,1.2
	c2.4,0,3.5-1.2,4.7-1.2c-7.1-8.3-7.1-13-5.9-17.8c1.2-1.2,3.6-2.4,5.9-3.6l-9.5-7.1l2.4-4.7l35.5,26L751.7,185.2z M742.2,156.8
	c-7.1-7.1-11.8-11.8-16.6-13c-5.9-3.6-11.9-2.4-15.4,3.5l-3.5-2.4c0-2.4,1.2-4.8,1.2-5.9c2.4-3.6,4.7-4.7,8.3-4.7
	c3.6-1.2,4.7,0,8.3,1.2c7.1,3.6,13,9.5,17.8,18.9L742.2,156.8z M717.3,157.9l-8.3-4.7L693.6,184l-5.9-7.1l14.2-27.2l-4.7-3.6
	l-2.4-7.1l26,13L717.3,157.9z M628.5,137.8v-1.2c-1.2-1.2-2.4-1.2-3.5-2.4c-1.2,0-2.4-1.2-3.6-1.2c-3.5-1.2-5.9,0-7.1,3.5
	c0,2.4,1.2,3.6,3.5,3.6h4.8C624.9,140.2,626.1,139,628.5,137.8z M632,123.6c-8.3-2.4-16.6-4.7-26-4.7l-3.5-7.1
	c18.9,2.4,37.9,7.1,56.8,10.7l-1.2,5.9l-17.8-3.6l-3.6,10.7h7.1c2.4,0,4.7,2.4,5.9,4.7c2.4,2.4,2.4,4.8,2.4,7.1
	c-1.2,4.7-3.5,7.1-5.9,9.5l-5.9-4.7c1.2-1.2,3.5-2.4,3.5-3.6c1.9-0.9,3.2-2.7,3.5-4.7c0-1.2,0-2.4-2.4-3.6c-1.2,0-5.9,0-9.5,2.4
	l-3.5,16.6l-7.1-4.8l2.4-10.6c-3,1.2-6.4,1.2-9.5,0c-2.4,0-4.7-1.2-7.1-3.6c-1.5-1.6-2.3-3.7-2.4-5.9c1.2-2.4,2.4-4.7,4.7-5.9
	c2.6-1.2,5.6-1.2,8.3,0c3.6,0,5.9,2.4,8.3,5.9L632,123.6z M574,118.9v14.2h14.2v5.9H574v3.6c0,1.2,0,2.4-1.2,2.4
	c-0.9-0.1-1.7-0.5-2.4-1.2l-8.3-8.3c-1.2,0-1.2,0-1.2-1.2c1-0.8,2.3-1.2,3.6-1.2h1.2v-14.2h-8.3l-3.5-7.1h48.5l3.5,7.1h-9.5v34.4
	l-8.3-4.7v-29.6H574z M576.4,104.7c-7-1.7-14.1-2.5-21.3-2.4c-7.1,1.2-10.7,4.7-10.7,11.8l-3.5,1.2c-1.2-2.4-2.4-3.5-2.4-5.9
	c-1.2-3.5,0-5.9,2.4-8.3c2.6-2.4,6-3.6,9.5-3.5c7.1-1.2,15.4,0,26,4.7L576.4,104.7z M557.5,118.9l-10.7,1.2l7.1,35.5l-10.7-3.6
	l-3.5-30.8l-7.1,1.2l-5.9-3.6l27.2-5.9L557.5,118.9z M501.8,131.9c1.2,0,3.5,1.2,5.9,2.4c1.2,1.2,2.4,3.6,3.5,4.7
	c0,1.2-1.2,2.4-2.4,3.6l-4.7,3.6c-2.4,1.2-2.4,2.4-2.4,3.6c1.2,1.2,2.4,2.4,7.1,1.2c4.1-1.5,7.7-3.9,10.7-7.1l-4.7-15.4L501.8,131.9
	z M523.1,152c-3.5,1.2-5.9,3.6-8.3,3.6c-7.1,2.4-14.2,0-20.1-7.1l-2.4-3.6l9.5-5.9c1.2,0,1.2-1.2,1.2-2.4l-2.4-2.4
	c0-1.2-2.4-1.2-3.5-1.2l-9.5,3.5l-5.9-4.7l45-13l5.9,4.7l-9.5,2.4l9.5,33.2l-8.3-2.4L523.1,152z M474.6,144.9
	c-1.2-1.2-2.4-1.2-4.7,0c-1.2,0-1.2,1.2-2.4,1.2c0,1.2-1.2,2.4,0,3.6c1.2,1.2,2.4,1.2,4.7,0C474.6,148.4,475.8,147.2,474.6,144.9
	L474.6,144.9z M500.6,159.1c-3.5,3.6-7.1,7.1-10.7,8.3c-3.5,2.4-7.1,3.6-11.8,2.4c-4.7,0-7.1-1.2-9.5-4.7c-1.2-2.4,0-4.7,2.4-8.3
	c-4.7,1.2-8.3,0-9.5-3.6c-1.2-2.2-1.2-4.9,0-7.1c0.9-2.1,2.6-3.8,4.8-4.7c2.4-1.2,4.7-1.2,7.1-1.2c2.2,0,4.3,0.9,5.9,2.4
	c1.2,3.6,0,5.9-5.9,9.5l2.4,1.2l5.9-3.6l5.9,4.7l-5.9,2.4c-3.5,3.6-7.1,5.9-5.9,8.3c0,1.2,2.4,1.2,3.5,1.2c0.9-0.9,2.3-1.3,3.6-1.2
	c5.5-3.2,9.6-8.3,11.8-14.2L500.6,159.1z M456.8,153.2l-7.1,4.7l20.1,28.4l-9.5,1.2l-17.8-24.9l-5.9,4.7l-7.1-2.4l20.1-15.4
	L456.8,153.2z M411.8,188.8l10.7,11.8l10.7-10.7l4.7,4.7l-11.8,9.5l2.4,2.4c0,1.2,1.2,2.4,0,3.6c-1.2,0-1.2,1.2-2.4,1.2l-11.9-1.2
	H413c0-1.2,0-1.2,1.2-2.4l2.4-2.4l-10.6-10.7l-5.9,5.9l-7.1-2.3l36.7-33.2l7.1,2.4l-7.1,5.9l23.7,26l-9.5,2.4l-20.1-22.5
	L411.8,188.8z M360.9,265.7c2.4-2.4,3.6-2.4,5.9-3.6h5.9c1.2,1.2,2.4,2.4,2.4,4.8l-1.2,5.9c-1.2,1.2,0,2.4,0,3.6
	c2.4,0,4.7-1.2,5.9-4.7c2.4-3.5,2.4-8.3,2.4-13l-14.2-7.1L360.9,265.7z M389.3,262.1c0,3.6,0,5.9-1.2,8.3c-3.6,7.1-9.5,10.6-19,10.6
	h-4.7l2.4-10.6c0.2-1.3-0.3-2.6-1.2-3.6H362c-1.2,1.2-2.4,1.2-2.4,2.4l-4.8,9.5l-7.1,1.2l20.2-42.7l7.1-1.2l-4.7,8.3l32,14.2
	l-7.1,5.9L389.3,262.1z M345.5,289.4l-1.2,3.5c-3.6-1.2-5.9,0-8.3,1.2c-1.2,1.2-4.7,3.6-7.1,5.9v5.9c2.4,3.6,3.6,4.7,5.9,4.7
	l-2.4,4.7c-1.2,1.2-4.7,1.2-5.9,0c-2.4,0-3.6-2.4-4.8-4.7c0-3.6,0-5.9,1.2-8.3c1.2-4.7,3.6-9.5,9.5-11.8
	C336.1,288.2,340.8,288.2,345.5,289.4L345.5,289.4z M355,278.7l-2.4,10.7l33.1,10.7l-5.9,5.9l-29.6-8.3l-1.2,5.9L342,306l5.9-26.1
	L355,278.7z M379.9,322.5l8.3,15.4l-3.6,3.5l-8.3-17.8L379.9,322.5z M349.1,303.6l-3.5,10.6l11.8,2.4v10.6c-2.4,8.3,0,11.8,4.7,13
	c2.4,0,4.7,0,5.9-2.4c1.5-1.6,2.3-3.7,2.4-5.9v-4.7h-1.2c-0.9,0.9-2.2,1.3-3.5,1.2l-1.2-1.2c-1.2-1.2-1.2-1.2-1.2-2.4
	c1.2-2.4,2.4-4.7,3.6-5.9c2.4-2.4,3.5-3.5,5.9-3.5c1.2,0,2.4,2.4,3.6,4.7l11.8-5.9v3.5l-11.8,5.9v5.9c-1.2,4.7-3.6,9.5-7.1,11.8
	c-3.5,3.6-8.3,4.7-11.8,3.6c-3.6,0-5.9-1.2-7.1-3.6c-1.2-2.4-1.2-4.7-1.2-7.1l1.2-10.7l-5.9-1.2l-3.5,22.5l-5.9,3.5l7.1-42.6
	L349.1,303.6z M359.7,346.2v11.8h3.5c1.3,0.1,2.3,1.1,2.4,2.4c0,1.2,0,1.2-1.2,1.2l-5.9,8.3h-1.2c-3.6,0-3.6-1.2-3.6-3.5V345
	L359.7,346.2z M342,345.1v26l-5.9,4.7l-1.2-27.2L342,345.1z M337.2,384.1v3.5c-9.5,8.3-14.2,15.4-14.2,20.1
	c-0.2,1.3,0.3,2.6,1.2,3.6l-7.1,4.7c-1.2-1.2-1.2-2.4-1.2-4.7c-1.2-3.6,1.2-9.5,7.1-15.4C326.6,392.4,332.5,388.8,337.2,384.1
	L337.2,384.1z M374,390c0,0-16.6-13-16.6-3.5c0,2.4,2.4,4.7,5.9,7.1l16.6-2.4l-1.2,9.4l-11.8,1.2c2.4,2.6,3.6,6,3.6,9.5
	c1.2,2.4,0,4.7-1.2,7.1s-2.4,3.6-4.7,3.6c-2.4,1.2-4.7,0-7.1-2.4c0-1.2-2.4-3.5-3.6-5.9c0-4.7,1.2-7.1,3.6-10.7l-10.7,2.4l2.4,22.5
	l-4.7,4.7l-8.3-56.8l5.9-4.7l3.6,26l11.8-2.4c-1.9-0.9-3.2-2.7-3.6-4.7c-1.2-3.5,0-5.9,1.2-8.3c7.1-8.3,23.7,0,21.3,3.5L374,390z
	 M361,403h-1.2c0,1.2-1.2,2.4-1.2,3.6v4.7c1.2,3.5,2.4,4.7,5.9,4.7c2.4,0,2.4-1.2,2.4-3.5s-1.2-3.5-2.4-5.9
	C364.5,405.4,363.3,404.2,361,403L361,403z"/>
<path class="st7" d="M827.4,436.2l1.2-4.7c1.2,0,3.5,0,3.5-1.2c0.1-0.9,0.5-1.8,1.2-2.4c0-2.4-1.2-3.5-3.5-4.7s-4.8-1.2-9.5,0
	l-1.2-3.5c7.1-2.4,13-3.5,15.4-2.4c3.5,1.2,5.9,4.8,4.7,9.5v1.2c-1.2,2.4-2.4,4.7-4.7,5.9S829.8,436.2,827.4,436.2 M812,430.2
	l1.2-9.5l-7.1-1.2c-2.4,0-3.5-1.2-2.4-3.5l1.2-11.8v-3.5c-1.2-1.2-1.2-2.5-2.4-2.5c-2.4,0-2.4,1.2-3.5,4.7c-0.1,1.7,0.4,3.3,1.2,4.7
	v5.9c0,2.4-2.4,3.5-4.8,5.9c-3.5,1.2-5.9,2.4-8.3,1.2c-2.4,0-4.7-2.4-5.9-5.9c-1.2-2.4-1.2-5.9-1.2-9.5c1.1-3.8,2.7-7.3,4.8-10.6
	c2.4-2.4,5.9-7.1,11.8-10.7l1.2,2.4c-7.1,5.9-10.7,11.8-10.7,18.9v5.9c0,2.4,2.4,3.5,3.5,4.7c1.3-0.1,2.3-1.1,2.4-2.4v-9.4
	c-0.1-3.1,1.2-6.2,3.6-8.3c3.5-3.5,7.1-4.7,9.5-4.7c3.5,0,3.5,2.4,4.8,4.7c1.2,2.2,1.2,4.9,0,7.1l-1.2,8.3l4.8,1.2l3.5-26l7.1-3.5
	l-5.9,43.8L812,430.2z M826.2,374.6v-2.4c9.5-7.1,15.4-13,15.4-18.9c0-1.2,0-1.2-1.2-2.4l7.1-3.5c1.2,1.2,2.4,2.4,2.4,3.5
	c-1.2,4.7-3.5,9.5-9.5,14.2C835.9,368.6,831.1,371.7,826.2,374.6L826.2,374.6z M819.1,386.4l1.2-10.6h-35.5l4.7-8.3l30.8-1.2
	l1.2-5.9l5.9-4.7l-2.4,27.2L819.1,386.4z M819.1,335.5l-3.5-23.7l4.7-4.7l7.1,48.5l-5.9,4.7v-10.6l-34.3,5.9l2.4-9.5l30.8-4.7
	L819.1,335.5z M796.6,333.2l10.7-4.8c0-2.4-1.2-3.5-3.5-4.7h-3.5c-1.2,0-2.4,1.2-3.5,2.4s-1.2,3.6-1.2,4.7S795.4,333.2,796.6,333.2
	L796.6,333.2z M802.5,341.4l7.1-1.2v-10.6l-11.8,5.9v1.2c-0.2,1.3,0.3,2.6,1.2,3.5C800.2,340.2,801.4,341.4,802.5,341.4L802.5,341.4
	z M796.6,345c-3.7-2.3-5.9-6.3-5.9-10.6c-1.2-3.6,0-7.1,1.2-10.7c2.4-4.7,4.7-7.1,8.3-7.1c3.5-1.2,7.1,0,10.7,3.5
	c2.4,2.4,3.5,5.9,4.7,9.5c0,4.7-1.2,9.5-4.7,13L796.6,345z M804.9,272.8l-3.5-8.3l-32,15.4v-9.5l28.4-13l-3.6-5.9l3.6-5.9l11.8,21.3
	L804.9,272.8z M794.2,251.5l-3.6-5.9l-29.6,17.8l-1.2-9.5l27.2-15.4l-3.5-7.1l3.5-7.1l10.7,21.3L794.2,251.5z M772.9,223
	c2.4-1.2,2.4-3.6,1.2-5.9s-2.4-3.6-3.5-3.6c-2.4-1.2-3.5-1.2-4.7,0s-1.2,3.6-1.2,4.8v4.7c0,1.2,1.2,1.2,3.6,1.2
	S772.9,224.2,772.9,223L772.9,223z M774.1,246.7c-2.4,0-5.9-2.4-8.3-5.9c-1.2-3.6-3.6-7.1-3.6-10.7c-7.1-4.7-10.6-5.9-13-3.6
	c-1.2,0-2.4,2.4-2.4,3.6c0.1,0.9,0.5,1.7,1.2,2.4c0,1.2,0,2.4,1.2,2.4c1.2,2.4,2.4,2.4,4.7,1.2c0.1-0.9,0.5-1.7,1.2-2.4
	c1.2-1.2,2.4-1.2,3.5,1.2c1.5,1.6,2.3,3.7,2.4,5.9c0,2.4,0,3.6-1.2,4.7s-3.5,1.2-5.9,0l-4.7,13l-3.6-2.3l4.7-13
	c-1.2,0-2.4-1.2-3.6-2.4c-2.4-3.5-3.6-7.6-3.5-11.9c-1.2-4.7,0-8.3,2.4-10.6c2.4-3.6,4.7-3.6,8.3-1.2c2.4,1.2,4.7,2.4,7.1,3.6
	c-2.4-7.1-1.2-11.8,1.2-13c2.4-2.4,4.8-2.4,8.3-2.4c2.6,1.2,5,2.8,7.1,4.7c1.6,3.7,2.4,7.8,2.4,11.9c0,3.5-2.4,7.1-4.7,8.3
	c-2.4,2.4-5.9,2.4-9.5,0l1.2,2.4c1.2,2.4,2.4,3.6,4.7,5.9c2.4,1.2,7.1,4.7,8.3,4.7L774.1,246.7z M764.7,199.4l-7.1-5.9l-24.9,24.9
	l-2.4-9.5l21.3-21.3l-3.6-3.6l3.6-5.9l14.2,14.2L764.7,199.4z M732.7,179.2c0.9-0.9,1.4-2.2,1.2-3.6c0-2.4,0-3.6-1.2-4.7
	c-1.2-1.2-3.5-1.2-4.7-1.2c-1.2,1.2-2.4,2.4-3.5,3.6c-1.2,1.2-1.2,3.6,0,5.9c0,2.4,1.2,3.6,1.2,4.7c1.7,0,3.3-0.4,4.7-1.2l1.2-1.2
	C732.7,180.4,732.7,180.4,732.7,179.2z M748.1,182.8l-9.5-7.1c0,4.7-1.2,9.5-3.6,11.8c-2.4,4.7-10.7,5.9-21.4,4.7l-1.2,11.8
	l-3.5-1.2v-13l-1.2-1.2c-3.5-2.4-4.7-4.8-2.4-8.3v-1.2c2.4-2.4,3.5-2.4,5.9-1.2c1.2,1.2,1.2,2.4,2.4,4.7v2.4h8.3
	c-5.9-8.3-7.1-14.2-4.7-17.8c2.4-1.2,2.4-2.4,4.7-3.6l-8.3-7.1l2.4-4.7l35.5,26.1L748.1,182.8z M737.4,155.6
	c-5.9-7.1-10.7-11.9-15.4-13c-7.1-3.6-11.9-2.4-15.4,3.6l-3.5-2.4c0-2.4,0-4.7,1.2-5.9c1.2-3.6,3.5-4.7,7.1-5.9
	c3.5,0,5.9,1.2,9.5,2.4c5.9,3.6,11.8,9.5,17.8,19L737.4,155.6z M713.7,156.8l-8.3-4.7l-16.6,30.8l-4.8-7.1l14.2-27.2l-5.9-3.6
	l-1.2-7.1l24.9,13L713.7,156.8z M623.7,136.6l1.2-1.2c-1.2-1.2-2.4-1.2-3.6-2.4c-1.1-0.6-2.3-1-3.5-1.2c-3.6-1.2-5.9,0-7.1,3.6
	c0,2.4,1.2,2.4,2.4,3.6h5.9C621.4,139,622.6,137.8,623.7,136.6L623.7,136.6z M627.2,122.4c-8.3-2.4-16.6-4.7-24.9-4.7l-3.5-7.1
	c19,2.4,36.8,7.1,56.9,10.7l-1.2,5.9l-19-3.6l-2.3,10.6h5.9c2.4,0,4.7,2.4,7.1,4.7c1.2,2.4,2.4,4.7,1.2,7.1c0,4.7-2.4,7.1-5.9,9.5
	l-4.7-4.8l3.6-3.6c1.2-2.4,3.5-3.6,3.5-4.7c0-1.2,0-2.4-2.4-3.6c-3.3-0.2-6.6,0.6-9.5,2.4l-3.5,16.6l-7.1-4.7l2.4-10.7
	c-2.4,1.2-7.1,1.2-10.7,0c-2.5,0-4.8-1.3-5.9-3.6c-2.4-1.2-2.4-3.6-2.4-5.9c1.2-2.4,2.4-4.7,4.7-5.9c2.4-1.2,4.7-1.2,8.3,0
	c3.5,0,5.9,2.4,7.1,5.9L627.2,122.4z M570.4,117.7v14.2h14.3v5.9h-14.2v3.6c-0.1,1.3-1.1,2.3-2.4,2.4l-1.2-1.2l-9.5-8.3v-1.2
	c0.6-0.6,1.5-1.1,2.4-1.2h2.4v-14.2h-8.3l-4.7-7.1h49.7l3.5,7.1H593V152l-8.3-4.8v-29.6H570.4z M571.7,103.5
	c-6.6-1.8-13.3-2.6-20.1-2.4c-7.1,1.2-10.7,4.7-10.7,11.8h-3.5c-1.2-1.2-2.4-2.4-2.4-4.7c-1.2-3.6,0-5.9,2.4-8.3
	c2.1-2.3,5.1-3.6,8.3-3.6c8.3-1.2,16.6,0,26,4.7L571.7,103.5z M553.9,117.7l-10.7,1.2l4.8,35.5l-8.3-3.6L535,120l-5.9,1.2l-5.9-3.6
	l26-5.9L553.9,117.7z M497.1,130.7c3.5,0,4.7,1.2,5.9,2.4c1.9,0.9,3.2,2.7,3.5,4.7c1.2,1.2,0,2.4-1.2,3.6l-4.7,3.6
	c-2.4,1.2-2.4,2.4-2.4,2.4c0,2.4,2.4,3.6,5.9,2.4c4.5-1.2,8.7-3.6,11.8-7.1l-4.7-15.4L497.1,130.7z M518.4,150.8
	c-2.4,1.2-4.8,3.6-8.3,3.6c-5.9,2.4-13,0-18.9-7.1l-3.5-3.6l9.5-5.9c1.2,0,3.5-1.2,1.2-2.4c0-1.2,0-1.2-1.2-2.4
	c-0.9-0.9-2.3-1.4-3.6-1.2l-10.7,2.4l-4.7-4.7l45-11.8l4.7,4.7l-8.3,2.4l9.5,33.2l-9.5-2.4L518.4,150.8z M471,143.7
	c-1.2-1.2-2.4-1.2-4.7,0c-0.9,0.1-1.7,0.5-2.4,1.2c-1,0.7-1.2,2.1-0.4,3.1c0.1,0.2,0.3,0.3,0.4,0.4c1.2,1.2,2.4,1.2,4.7,0
	C471,147.3,472.2,146.1,471,143.7L471,143.7z M494.7,157.9c-2.4,3.6-4.7,7.1-9.5,8.3c-2.4,2.4-7.1,2.4-10.7,2.4
	c-4.7,0-7.1-1.2-9.5-4.7c-1.2-2.4,0-4.7,2.4-8.3c-5.9,1.2-8.3,0-10.7-3.6c-1.4-2.3-0.9-5.3,1.2-7.1c0.9-2.1,2.6-3.8,4.7-4.8
	c2.4-1.2,4.7-1.2,7.1-1.2s4.7,1.2,4.7,2.4c3.5,3.6,0,5.9-4.7,9.5l1.2,1.2l7.1-3.6l5.9,4.8l-5.9,2.4c-5.9,3.6-7.1,5.9-5.9,8.3
	c0,1.2,1.2,1.2,3.5,1.2c2.4-1.2,2.4-1.2,3.5-2.4c5.4-2.8,9.6-7.4,11.8-13L494.7,157.9z M453.3,152l-8.3,4.7l21.3,28.4l-9.5,1.2
	l-17.8-24.9l-5.9,4.8l-7.1-2.4l20.1-15.4L453.3,152z M408.3,187.5l9.5,11.8l11.9-10.6l3.6,4.7l-10.7,9.5l1.2,2.4
	c1,0.7,1.2,2.1,0.4,3.1c-0.1,0.2-0.3,0.3-0.4,0.4h-13c-2.4-1.2,0-1.2,0-2.4l1.2-2.4l-9.5-10.7l-7.1,5.9l-7.1-2.4l37.9-33.2l7.1,2.4
	l-7.1,5.9l22.5,26l-8.3,2.4L420.2,178L408.3,187.5z M357.4,264.5c1.2-2.4,3.6-2.4,5.9-3.6h5.9c1.2,1.2,2.4,2.4,1.2,4.7l-1.2,4.7
	c0,2.4,0,3.6,1.2,4.7c2.4,0,4.7-1.2,5.9-4.7c2.4-3.5,2.4-8.3,2.4-13l-15.4-7.1L357.4,264.5z M385.8,261c-0.1,2.9-0.9,5.8-2.4,8.3
	c-2.4,7.1-8.3,10.6-17.8,10.6h-4.7l2.4-10.7c0.2-1.3-0.3-2.6-1.2-3.5h-3.5c-1.2,1.2-1.2,1.2-1.2,2.4l-5.9,9.5l-7.1,1.2l18.9-42.6
	l8.3-1.2l-4.7,8.3l32,14.2l-7.1,5.9L385.8,261z M342,288.2l-1.2,3.5c-3.6-1.2-5.9,0-8.3,1.2c-3.5,1.2-5.9,2.4-7.1,5.9v5.9
	c1.2,2.4,2.4,4.7,3.6,4.7l-1.2,4.7c-1.4,1.2-3.4,1.2-4.7,0c-2.4,0-4.7-2.4-4.7-5.9c-1.2-2.4,0-4.7,0-7.1c2.4-4.7,4.7-9.5,9.5-11.8
	C332.5,287,336.1,287,342,288.2L342,288.2z M351.4,277.6l-2.4,10.6l33.1,9.5l-7.1,7.1l-28.4-8.3l-2.4,5.9l-7.1,1.2l7.1-24.9
	L351.4,277.6z M376.3,321.4l7.1,15.4l-2.4,3.5l-8.3-17.8L376.3,321.4z M344.3,302.4l-2.4,10.6l10.6,2.4h1.2v2.4l-1.2,8.3
	c-1.2,8.3,0,11.8,5.9,13c2.4,0,3.5,0,5.9-2.4c1.2-2.4,2.4-3.5,2.4-5.9v-4.7h-2.4c0,1.2-1.2,1.2-2.4,1.2c-0.6,0-1.2-0.5-1.2-1.1
	c0,0,0,0,0,0c-1.2-1.2-1.2-1.2-1.2-2.4c0-2.5,1.3-4.8,3.6-5.9c1.1-2.2,3.4-3.6,5.9-3.5c1.2,0,2.4,2.4,2.4,4.7l10.6-5.9l2.4,3.6
	l-11.8,5.9v5.9c-1.2,4.8-3.6,9.5-7.1,11.9c-3.4,3.4-8.3,4.8-13,3.5c-2.5,0-4.8-1.4-5.9-3.6c-1.2-2.4-2.4-4.7-1.2-7.1l1.2-10.6
	l-5.9-1.2l-3.6,22.5l-8.3,3.5l8.3-42.6L344.3,302.4z M357.3,345.1v11.8h2.4c1.3,0.1,2.3,1.1,2.4,2.4l-1.2,1.2l-7.1,8.3h-1.2
	c-2.4,0-3.6-1.2-3.5-3.5v-21.3L357.3,345.1z M337.2,343.9l1.2,26l-5.9,4.7l-3.5-27.2L337.2,343.9z M334.8,382.9v3.5
	c-11.8,8.3-16.6,15.4-15.4,20.1c-0.2,1.3,0.3,2.6,1.2,3.5l-7.1,4.7c-1.2-1.2-1.2-2.4-1.2-4.7c0-3.5,1.2-9.5,7.1-15.4
	C321.8,391.2,326.6,387.6,334.8,382.9L334.8,382.9z M369.1,388.9c1.2,0-15.4-13-15.4-3.5c0,2.4,3.6,4.7,4.7,7.1l17.8-2.4l-1.2,9.5
	l-13,1.2c2.4,2.4,4.7,5.9,4.7,9.5c0,2.4,0,4.7-1.2,7.1s-2.4,3.5-5.9,3.5c-2.4,1.2-4.8,0-5.9-2.4c-2.2-1.1-3.6-3.4-3.6-5.9
	c0-4.7,0-7.1,3.6-10.7l-11.8,2.4l3.5,21.3l-5.9,5.9l-7.1-56.8l5.9-4.7l2.4,24.9l11.8-1.2c-2.4-1.2-2.4-3.6-3.6-4.7
	c0.1-2.9,0.9-5.8,2.4-8.3c7.1-8.3,22.5,0,21.3,3.5L369.1,388.9z M357.3,401.9L357.3,401.9c-2.4,1.2-2.4,2.4-2.4,3.5v4.7
	c0,3.5,2.4,4.7,5.9,4.7c1.2,0,2.4-1.2,2.4-3.5c-1.2-2.4-1.2-3.6-2.4-5.9L357.3,401.9z"/>
<path class="st6" d="M659.3,601.9h-2.4c-2.4-2.4-4.7-4.7-7.1-5.9c-2.4-2.4-5.9-2.4-9.5-2.4c-1.2,1.2-3.6,2.4-4.8,3.5
	c-1.2,2.4-2.4,4.7-1.2,5.9l-4.7,1.2c-2.4-1.2-2.4-2.4-3.5-3.5c0-2.4,0-4.7,2.4-7.1s3.5-3.5,7.1-3.5c4.8-2.4,9.5-1.2,14.2,0
	C654.6,592.4,658.1,596,659.3,601.9 M672.3,604.3l-8.3,2.4l9.5,33.2l-9.5-1.2l-8.3-29.6l-7.1,2.4l-4.7-4.7l22.5-7.1L672.3,604.3z
	 M601.3,618.5l-1.2-5.9l43.8-5.9l3.5,5.9l-9.5,1.2l5.9,34.3l-9.5-3.5l-4.8-29.6L601.3,618.5z M632.1,628h-2.4
	c-2.4,0-3.5,1.2-5.9,3.5c-1.5,1.6-2.3,3.7-2.4,5.9h-9.5l1.2-3.5v-2.4c0-1.2-1.2-2.4-3.5-2.4c-2.4,1.2-4.7,2.4-5.9,3.5
	c-1.5,1.6-2.3,3.7-2.4,5.9c1.2,3.5,5.9,8.3,15.4,11.8l-3.5,2.4c-11.8-4.7-17.8-11.8-18.9-18.9c-1.2-2.4,0-4.7,2.4-7.1
	c3.5-3.5,9.5-3.5,14.2-2.4c2.4,0,3.5,1.2,4.7,3.6c1.2-3.6,3.5-4.7,7.1-4.7c3.5-1.2,5.9-1.2,8.3,0L632.1,628z M593,633.9
	c0,2.4-2.4,3.5-4.8,5.9l-5.9-2.4l1.2-2.4v-2.4c0-1.2-1.2-2.4-3.5-2.4s-3.5,0-5.9,2.4c-2.4,1.2-2.4,2.4-2.4,4.7
	c0,4.7,4.7,9.5,11.8,14.2l-2.4,2.4c-11.8-7.1-16.6-14.2-16.6-21.3c0-3.5,1.2-4.7,2.4-7.1c2.9-1.6,6.2-2.5,9.5-2.4
	c1.2,0,3.5,1.2,5.9,2.4c1.2,0,2.4,2.4,3.5,3.6c1.2-2.4,9.5-7.1,8.3-2.4L593,633.9z M601.3,618.5h-39.1l-4.7-5.9h43.8L601.3,618.5z
	 M562.2,619.7l-8.3-2.4l-3.5,10.7l-1.2,1.2H548l-9.5-2.4c-7.1-1.2-11.8,0-13,4.7c0,2.2,0.9,4.3,2.4,5.9c3.5,1.2,3.5,2.4,5.9,3.5h4.7
	v-1.2c-1-0.7-1.2-2.1-0.4-3.1c0.1-0.2,0.3-0.3,0.4-0.4c0-0.6,0.5-1.2,1.1-1.2c0,0,0,0,0,0c0,0,1.2-1.2,1.2,0c2.4,0,4.7,1.2,7.1,3.5
	c1.6,1.5,2.1,3.9,1.2,5.9c0,1.2-1.2,2.4-3.5,2.4l3.5,10.7l-3.5,2.4l-3.6-13H535c-3.5-1.2-8.3-3.5-10.7-8.3c-3.4-3.4-4.8-8.3-3.5-13
	c2.4-2.4,2.4-4.7,4.7-5.9c2.6-1.2,5.7-1.2,8.3,0l9.5,2.4l1.2-5.9l-21.3-5.9l-3.5-7.1l40.3,9.5L562.2,619.7z M545.7,606.7
	c-7.1-5.9-13-9.5-17.8-10.6c-7.1-2.4-11.8-1.2-14.2,5.9l-3.6-1.2c-1.2-2.4,0-4.7,0-7.1c1.2-3.5,3.6-4.7,5.9-5.9
	c3.5-1.2,7.1-1.2,9.5,0c7.1,2.4,14.2,8.3,20.1,16.6V606.7z M523.2,611.4l-9.5-3.6L501.9,641l-5.9-7.1l9.5-28.4l-4.7-2.4l-3.5-7.1
	l22.5,8.3L523.2,611.4z"/>
<path class="st7" d="M656.9,598.4l-4.7,1.2c-1.2-2.4-3.5-4.8-4.7-7.1c-3.5-1.2-5.9-2.4-9.5-1.2c-1.2,1.2-3.5,2.4-4.7,3.5
	c-2.4,2.4-2.4,3.6-1.2,5.9l-5.9,1.2c-1.2-1.2-2.4-2.4-2.4-3.5c-1.2-3.6,0-5.9,2.4-7.1c1.2-2.4,3.5-3.5,7.1-4.7
	c4.7-1.2,10.7-1.2,14.2,1.2C651,590.1,655.7,593.6,656.9,598.4 M669.9,601.9l-9.5,2.4l10.7,33.2l-9.4-2.4l-9.5-28.4l-7.1,1.2
	l-4.7-4.7l23.7-5.9L669.9,601.9z M598.9,616.1v-5.9l40.3-5.9l5.9,4.7l-9.5,2.4l4.8,34.3l-8.3-3.6l-4.7-29.6L598.9,616.1z
	 M629.7,625.6h-2.4c-2.2,0-4.3,0.9-5.9,2.4c0,1.2-2.4,3.5-4.7,7.1l-7.1-1.2v-3.5c0.6,0,1.2-0.5,1.2-1.1c0,0,0,0,0-0.1
	c-1.2-2.4-2.4-2.4-4.8-2.4c-2.1,0.3-3.8,1.7-4.7,3.6c-2.4,1.2-2.4,3.5-2.4,5.9c1.2,3.5,5.9,7.1,14.2,11.8l-2.4,2.4
	c-11.9-5.9-19-11.8-20.1-18.9c0-2.4,1.2-4.7,2.4-7.1c3.5-3.5,9.5-3.5,14.2-2.4c2.5,0,4.8,1.3,5.9,3.5c1.2-3.5,3.5-4.7,8.3-5.9
	c2.4,0,4.8,0,7.1,1.2L629.7,625.6z M590.6,631.5c-1.2,1.2-3.5,2.4-5.9,5.9l-5.9-2.4l1.2-3.5c0.6,0,1.2-0.5,1.2-1.1c0,0,0,0,0-0.1
	c0-2.4-1.2-2.4-3.5-2.4c-1.2,0-4.8,0-5.9,1.2c-2.4,2.4-3.5,3.5-3.5,5.9c0,3.5,4.7,8.3,13,14.2l-3.5,2.4
	c-10.7-7.1-16.6-14.2-16.6-21.3c0-3.6,1.2-5.9,3.6-7.1c2.4-1.2,4.7-2.4,8.3-2.4s4.8,1.2,5.9,1.2c2.4,1.2,4.7,2.4,5.9,4.7
	c0-2.4,8.3-7.1,7.1-3.5L590.6,631.5z M598.9,616.1h-39.1l-4.7-5.9h43.8L598.9,616.1z M559.8,617.3l-9.5-2.4l-2.4,10.7h-1.2
	c0,0.6-0.5,1.2-1.1,1.2c0,0,0,0,0,0l-9.5-2.4c-7.1-2.4-11.8,0-13,4.8c0,2.4,0,3.5,2.4,5.9c1.2,1.2,3.5,2.4,5.9,3.5h4.7l-1.2-2.4
	v-2.4c0-0.6,0.5-1.2,1.1-1.2c0,0,0,0,0,0c0.6-0.7,1.5-1.1,2.4-1.2c2.4,1.2,4.7,2.4,5.9,3.5c2.4,2.4,3.6,4.7,2.4,5.9
	c0,2.4-1.2,2.4-3.6,3.6l3.6,10.7l-3.6,2.4l-4.7-13h-5.9c-4.7-1.2-8.3-4.8-11.8-8.3c-2.4-4.7-3.5-8.3-2.4-13c1.2-2.4,2.4-4.7,4.7-5.9
	c2.4-1.2,4.7-1.2,8.3-1.2l9.5,2.4l1.2-5.9l-22.5-4.7l-2.4-7.1l39.1,9.4L559.8,617.3z M543.3,603.1c-7.1-4.7-11.8-8.3-17.8-10.7
	c-7.1-2.4-11.9,0-14.2,5.9l-4.7-1.2c0-2.4,0-4.7,1.2-5.9c1.2-3.5,3.5-5.9,5.9-5.9c2.4-1.2,5.9-1.2,9.5,0c8.3,2.4,14.2,8.3,20.1,15.4
	V603.1z M519.6,607.8l-9.5-2.4l-9.5,33.2l-7.1-7.1l9.5-28.4l-5.9-2.4l-2.4-7.1l22.5,7.1L519.6,607.8z"/>
<path class="st8" d="M452.1,362.8L562.2,403l118.4-39.1l24.9-10.7l-47.4-7v-2.4l52.1-15.4l-54.5,4.7l-3.5-3.5l29.6-28.4L643.9,313
	l-2.4-3.6l42.6-36.7l-49.7,28.5l-2.4-1.2l13-37.9l-28.3,26l-2.4-2.4l20.1-50.9l-30.8,46.2h-2.4l-4.7-39.1l-13,35.5l-3.5-1.2
	l-3.5-54.4l-7.1,55.6h-3.5l-21.3-33.2l2.4,39.1h-2.4l-27.2-47.4l16.6,53.3l-2.4,1.2l-33.2-20.1l18.9,33.1l-2.4,2.4l-45-32l37.8,40.3
	l-1.2,3.5l-39.1-4.7l33.1,22.5l-2.4,2.4l-54.5-8.3l52.1,18.9v3.5L452.1,362.8z M562.2,406.6l-120.8-45l48.5-11.8l-69.9-27.2l71,10.7
	l-35.4-23.7L503,313l-47.4-52.1l54.5,37.9L490,260.9l41.4,24.9l-22.5-71l34.3,61.6l-2.4-41.4l24.9,37.9l11.8-71l4.7,67.4l16.6-37.9
	l4.7,45l40.3-58l-22.5,62.7l29.6-27.2l-14.2,42.6l62.8-35.5l-49.7,46.2l41.4-10.7l-32,32l74.6-5.9l-67.5,21.3l53.3,7.1l-37.9,16.6
	L562.2,406.6z"/>
<path class="st9" d="M562.2,407.7l-0.3-0.1l-120.8-45l0.1-2l45.2-11l-66.7-26l0.5-2l66.3,10l-31.5-21l0.7-1.9l44.7,3.4l-45.6-50.1
	l1.4-1.6l50.9,35.3l-18.1-34l1.5-1.4l39,23.4l-21.6-68.4l1.9-0.8l32.1,57.5l-2.1-36.8l2-0.6l23.4,35.6l11.4-68.4l2.1,0.1l4.4,63.2
	l14.8-33.9l2,0.3l4.4,42.1l38.6-55.6l1.9,1l-21,58.7l26.4-24.3l1.7,1.1l-13.3,40l60.4-34.1l1.2,1.7l-46.7,43.3l37.4-9.6l1,1.8
	l-29.9,29.9l71.7-5.7l0.4,2.1l-62.9,19.9l48.5,6.5l0.3,2l-37.9,16.6L562.2,407.7z M445.1,361.8l117.2,43.6l119.2-39l34.3-15
	l-49.5-6.6l-0.2-2.1l11.4-3.6l-18.3,5.4v0.7l46.5,7l0.3,2L681,364.9l-118.8,39.3l-0.3-0.1l-110.1-40.2l0.1-2l43-10.5v-2l-45.2-16.5
	l40.8,15.9l-0.1,2L445.1,361.8z M455.8,363l106.5,38.9l118-39l21.3-9.1l-44.6-6.7V343l0.8-0.2l41.9-12.4l-44.4,3.8l-4.6-4.6l27.1-26
	l-34.3,10.7l-3.3-5l34.9-30.1l-40.6,23.2l-3.8-1.9l12-34.8l-26.1,23.9l-3.6-3.6l0.2-0.7l16.5-41.6l-25.5,38.3h-3.9l-4.3-35.6
	l-11.9,32.3l-5.2-1.7l-2.9-44.1l-5.8,45.6h-5.1l-0.3-0.5l-19.1-29.7l2.2,36.1h-4.1L521.1,245l14,44.9l-3.7,1.9l-0.5-0.3l-29.6-18
	l17.3,30.3l-3.6,3.6L478,281l31,32.9l-1.7,5l-35.6-4.3l30.6,20.8l-3.7,3.6l-0.5-0.1l-43.8-6.7l42.7,15.5v5.1l-0.8,0.2L455.8,363z
	 M444,328.6l53.9,8.2l1.1-1.1l-32.1-21.8l0.7-1.9l38.2,4.6l0.7-2.1l-22.6-24l19.9,21.8l-0.9,1.8l-43.3-3.2l32.1,21.4l-0.8,2
	l-61.6-9.2l14.1,5.5L444,328.6z M653.7,329.6l2.4,2.4l54-4.7l0.3,1.5l14.3-4.5l-65.3,5.2l-0.8-1.8l29.2-29.2l-37.7,9.7l-1-1.8
	l29-26.9l-35.2,30.3l1.4,2.1l37.1-11.6l1.1,1.8L653.7,329.6z M470.5,273.1l44.2,31.4l1.1-1.1l-18.5-32.4l1.5-1.5l32.6,19.8l1-0.5
	l-0.8-2.7l-0.8,0.6l-38.1-22.9l18.3,34.5l-1.5,1.4l-46.7-32.5l6.6,7.2L470.5,273.1z M633.4,299.5l1,0.5l49.2-28.1l1,1.5l7.5-7
	l-54.8,31l-1.5-1.3l13-38.7l-4.3,4l1.7,1.1L633.4,299.5z M615.5,285.5l1.1,1.1l5.4-4.9l-1.7-1.1l19.8-55.1l-6.2,8.9l1.5,0.8
	L615.5,285.5z M545,282.4h0.7l-2.3-37.9l2-0.6l21,32.7h2l7-54.7l2.1,0.1l3.5,53.7l1.9,0.6l12.5-34.2l-12.1,27.6l-2-0.4l-4.1-58.5
	L566.8,273l-1.9,0.4l-22.7-34.6l2.1,37.4l-2,0.6l-29.2-52.4l3.7,11.7l1.3-0.6L545,282.4z M602.2,280h0.9l16.7-25l-15.2,21.9
	l-1.9-0.5l-4.3-41l-2.7,6.2l2,0.2L602.2,280z"/>
<path class="st10" d="M574,380.5l19-1.2l-3.6,149.2c-5.9-3.5-7.1-2.4-13,1.2L574,380.5z"/>
<path class="st11" d="M471,384.1c33.1-13,66.3-10.7,99.5,0v136.2c-33.2-10.7-66.3-9.5-99.5,0L471,384.1z"/>
<path class="st6" d="M520.8,381.7c-14.2,0-29.6,2.4-42.6,7.1v123.1c13.9-3.9,28.2-5.9,42.6-5.9c14.2,0,28.4,1.2,42.6,4.7V388.8
	C549.7,384.1,535.3,381.8,520.8,381.7 M468.7,377c16.6-5.9,34.3-9.5,52.1-8.3c16.6,0,34.3,2.4,50.9,8.3l4.7,1.2v151.5l-8.3-3.5
	c-14.2-4.7-32-7.1-47.4-7.1c-16.6,0-32,3.5-48.5,7.1l-8.3,2.4V379.3L468.7,377z"/>
<path class="st11" d="M596.5,384.1c33.2-13,67.5-10.7,100.6,0v136.2c-33.1-10.7-67.5-9.5-100.6,0V384.1z"/>
<path class="st6" d="M646.3,381.7c-14.5,0-28.9,2.4-42.6,7.1v123.1c14.2-3.5,28.4-5.9,42.6-5.9c15.4,0,29.6,1.2,43.8,4.7V388.8
	C676,384.1,661.2,381.7,646.3,381.7 M594.2,377c17.8-5.9,34.3-9.5,52.1-8.3c20.1,0,35.5,2.4,53.3,8.3l4.7,1.2v151.5l-9.5-3.5
	c-15.7-4.8-32.1-7.2-48.5-7.1c-15.4,0-32,3.5-47.4,7.1l-9.5,2.4V379.3L594.2,377z"/>
<path class="st12" d="M624.9,339.1c0,18.9-19,35.5-41.4,35.5s-41.4-14.2-41.4-33.2C542.1,327.2,624.9,330.8,624.9,339.1z"/>
<path class="st13" d="M583.5,381.1c-26.9,0-48-17.4-48-39.7c0-10.1,13.2-12.9,17.5-13.8c9.4-1.9,20.8-2.4,28.8-2.4
	c49.6,0,49.6,10.4,49.6,13.8C631.5,361.9,609.5,381.1,583.5,381.1z M548.6,342.6c0.8,14.1,16.2,25.5,34.9,25.5
	c17.5,0,32.9-11.9,34.8-26.2C606,337.4,557.1,336.7,548.6,342.6z"/>
<path class="st14" d="M583.5,322.5c21.3,0,40.3,7.1,40.3,15.4s-19,15.4-40.3,15.4c-22.5,0-40.3-7.1-40.3-15.4S561,322.5,583.5,322.5
	z"/>
<path class="st13" d="M583.5,357.7c-22.2,0-44.7-6.8-44.7-19.8s22.5-19.8,44.7-19.8c22,0,44.7,7.4,44.7,19.8
	S605.5,357.7,583.5,357.7z M583.5,326.9c-22.2,0-35.8,7.1-35.8,11s13.6,11,35.8,11c22.2,0,35.8-7.6,35.8-11S605.8,326.9,583.5,326.9
	z"/>
<path class="st7" d="M583.5,341.4c24.9,0,7.1-49.7,0-49.7S564.6,340.2,583.5,341.4z"/>
<path class="st3" d="M583.5,343.6h-0.1c-8.3-0.5-12.6-8.3-12.2-21.9c0.4-12.9,5.8-32.1,12.3-32.1c6.8,0,14.9,21.8,14.9,35.5
	c0,5.3-1.1,9.6-3.2,12.7C592.7,341.6,588.6,343.6,583.5,343.6z M583.4,293.8c-2.7,1-9.6,20.4-7.7,34.8c0.9,6.8,3.5,10.4,7.9,10.7
	c6,0,9.4-3.4,10.4-10.3C595.9,314.5,586.4,294.6,583.4,293.8L583.4,293.8z"/>
<path class="st7" d="M378.7,500.1c5.9,0,10.7,3.6,10.7,9.5c0,5.9-4.8,10.7-10.7,10.7s-10.7-4.8-10.7-10.7
	C368,503.7,372.8,500.1,378.7,500.1"/>
<path class="st7" d="M788.3,500.1c5.9,0,10.7,3.6,10.7,9.5c0.2,5.9-4.4,10.8-10.3,11c-5.9,0.2-10.8-4.4-11-10.3c0-0.2,0-0.4,0-0.7
	C777.7,503.7,782.4,500.1,788.3,500.1"/>
<path class="st6" d="M768.2,667h4.7c2.4,0,3.5,1.2,4.7,2.4s0,2.4,0,3.5l-3.5,3.5c-1,0.7-1.2,2.1-0.5,3.1c0.1,0.2,0.3,0.3,0.5,0.5
	c1.2,1.2,2.4,1.2,4.7-1.2c3.5-2.4,4.7-4.7,8.3-8.3l-9.5-10.6L768.2,667z M789.5,675.3c-1.2,2.4-2.4,4.7-4.7,5.9
	c-4.8,3.5-9.5,3.5-16.6,0l-3.5-2.4l5.9-5.9v-2.4c0-1.2-1.2-1.2-2.4-1.2c-0.6-0.7-1.7-0.7-2.3,0c0,0,0,0,0,0l-7.2,4.7l-4.7-1.2
	l29.6-23.7l4.7,2.4l-5.9,4.7l17.8,21.3l-8.3,1.2L789.5,675.3z M736.2,689.5l5.9,8.3l10.7-5.9l2.4,3.5l-10.7,7.1l1.2,1.2
	c1.2,1.2,1.2,2.4,0,2.4c0,0-1.2,1.2-1.2,0l-9.5-1.2h-1.2c0-1.2,0-1.2,1.2-2.4l2.4-1.2l-7.1-9.5l-7.1,3.5l-3.5-3.5l33.2-19l4.7,2.4
	l-5.9,3.5l15.4,22.5h-7.1l-13-18.9L736.2,689.5z M719.7,691.9l4.7,3.5l-8.3,2.4l11.8,26l-7.1-1.2l-10.7-21.3l-8.3,3.5l7.1,14.2
	c0.2,1.3-0.3,2.6-1.2,3.6h-2.4l-8.3-2.4c0,0,0-1.2-2.4-1.2c0-1.2,2.4-1.2,2.4-2.4l2.4-1.2l-2.4-8.3l-8.3,3.5l-4.8-3.5L719.7,691.9z
	 M704.3,748.7l-1.2,2.4c-5.9-2.4-13-2.4-16.6-2.4c-1.2,1.2-2.4,1.2-3.6,2.4l-4.7-2.4c1.2-1.2,2.4-2.4,3.5-2.4
	c1.4-0.8,3.1-1.2,4.7-1.2h5.9C694.8,746.4,699.5,747.5,704.3,748.7L704.3,748.7z M681.8,713.2l-8.3,2.4l2.4,8.3c0,1.2,0,1.2-1.2,1.2
	l-7.1,2.4c-5.9,1.2-8.3,4.7-7.1,8.3c0,1.2,2.4,2.4,3.5,3.6h5.9l1.2-1.2c1.2,0,1.2,0,2.4-1.2l-1.2-1.2c-0.6,0-1.2-0.5-1.2-1.1
	c0,0,0,0,0,0v-2.4h1.2c1.2-1.2,3.5-1.2,5.9,0c2.4,0,3.5,1.2,3.5,2.4c0.1,1.7-0.4,3.3-1.2,4.7l7.1,5.9l-3.6,1.2l-7.1-5.9
	c-1.2,1.2-2.4,1.2-3.5,2.4c-4.7,1.2-7.1,0-11.8-1.2c-3.5-2.4-5.9-4.7-7.1-8.3c-0.2-2,0.2-4.1,1.2-5.9c1.2-1.2,3.6-2.4,4.7-3.5
	l8.3-2.4l-1.2-4.7l-18.9,4.7l-4.7-3.5l33.1-8.3L681.8,713.2z M621.4,726.2v10.7c1.2,1.2,3.6,1.2,4.8,1.2c3.5-1.2,5.9-2.4,7.1-4.7
	l1.2,7.1c-1.2,0-3.5,1.2-5.9,1.2c-3.5,0-5.9,0-7.1-1.2c0,1.2,0,2.4-3.5,3.5l11.8,7.1l-2.4,2.4l-17.8-11.8c-1.3,0-2.4-1.1-2.4-2.4
	c0-1.3,1.1-2.4,2.4-2.4c0.9-0.9,2.2-1.4,3.5-1.2c0,0.6,0.5,1.2,1.1,1.2c0,0,0,0,0.1,0l-1.2-9.5l-10.7,1.2l-3.5-4.7l45-5.9l4.7,3.5
	l-9.5,2.4l4.7,26l-8.3-1.2L632,725L621.4,726.2z M584.7,728.6h-8.3v27.2l-7.1-4.7l1.2-22.5h-4.7l-3.5-4.7h19L584.7,728.6z
	 M538.5,725l-1.2,11.8l13,1.2l-1.2,4.7l-11.8-1.2v2.4c-1.2,1.2-1.2,2.4-2.4,2.4l-1.2-1.2l-5.9-7.1c-1.2,0-1.2,0-1.2-1.2
	c0.6-0.7,1.7-0.7,2.3-0.1c0,0,0,0,0.1,0.1h2.4l1.2-11.8l-7.1-1.2l-2.4-4.7l39.1,3.6l2.4,5.9l-7.1-1.2l-2.4,26l-7.1-3.5l3.6-23.6
	L538.5,725z M495.9,713.2l-2.4-1.2c-3.5-8.3-7.1-13-11.8-14.2h-2.4l-1.2-5.9h3.6c2.4,0,8.3,1.2,10.7,7.1
	C494.7,701.4,494.7,708.5,495.9,713.2z M505.4,721.5l-7.1-2.4l-8.3,26l-4.7-4.7l7.1-23.7l-4.7-1.2l-2.4-5.9l18.9,5.9L505.4,721.5z
	 M455.6,702.5v-5.9l29.6,11.8l2.4,7.1l-8.3-3.5l-10.6,24.9L464,731l9.5-21.3L455.6,702.5z M469.8,716.7l-8.3-3.5
	c-3.6-1.2-5.9-1.2-5.9,2.4c-2.4,2.4-2.4,5.9,0,11.8l-3.6,1.2c-3.5-8.3-3.5-14.2-2.4-18.9c1.2-3.6,5.9-3.6,11.8-1.2l10.7,4.7
	L469.8,716.7z M433.2,689.5l-4.8,8.3c0,1.2,1.2,2.4,2.4,3.5c2.4,1.2,5.9,1.2,8.3,1.2l-3.6,5.9c-1.2-1.2-2.4-1.2-4.7-2.4
	c-2.4-2.4-4.7-3.5-5.9-5.9c-1.2,1.2-2.4,1.2-4.7,1.2l3.5,13h-2.4l-5.9-21.3v-1.2c1.2-1.2,2.4-2.4,4.7-1.2c0,0.6,0.5,1.2,1.1,1.2
	c0,0,0,0,0.1,0c0.6,0,1.2,0.5,1.2,1.1c0,0,0,0,0,0.1l4.7-7.1l-8.3-5.9l-1.2-5.9l37.9,22.5v5.9l-6-3.5l-15.4,23.7l-3.6-7.1l13-20.1
	L433.2,689.5z M418.9,680l-5.9-2.4L396.4,699l-3.5-7.1l15.4-17.8l-4.7-3.5l1.2-5.9l13,9.5L418.9,680z M398.8,686
	c-0.9-0.1-1.7-0.5-2.4-1.2l-3.6-3.5v2.4c-2.4,1.2-4.7,2.4-7.1,2.4s-4.7-1.2-7.1-3.5c-4.7-3.5-5.9-9.5-5.9-20.1h3.5
	c-1.2,3.5,0,5.9,0,8.3c1.2,3.5,2.4,5.9,3.6,7.1c1.2,1.2,2.4,1.2,4.7,1.2c3.6,1.2,3.6,0,4.8-1.2s1.2-3.6-1.2-4.8
	c0-1.2-2.4-1.2-2.4-1.2c0-1.2-1.2-1.2-2.4-1.2l-2.4-2.3v-4.7c0-0.6,0.5-1.2,1.1-1.2c0,0,0,0,0.1,0c1.2,0,2.4,1.2,3.6,2.4h2.4v2.4
	h3.5c2.4,0,2.4,0,3.6-1.2c1.2-1.2,0-2.4-1.2-3.5c-2.4-1.2-5.9-2.4-9.5-4.8v-4.7c3.2-0.1,6.2,1.2,8.3,3.5c3.5,2.4,4.7,4.7,5.9,9.5
	c0,2.4,0,4.7-1.2,7.1c-1.2,0-1.2,0-2.4,1.2c-1.3,0.2-2.6-0.3-3.6-1.2c1.2,2.4,2.4,4.8,4.7,5.9c1.6,1.5,3.7,2.3,5.9,2.4L398.8,686z"
	/>
<path class="st11" d="M765.8,665.8h4.7c2.4,0,3.5,1.2,4.7,2.4c0.2,1.3-0.3,2.6-1.2,3.5l-2.4,3.6c-0.9,0.9-1.3,2.2-1.2,3.5
	c1.2,1.2,3.5,1.2,5.9-1.2s4.8-4.8,5.9-8.3l-7.1-10.7L765.8,665.8z M787.1,674.1c0,2.4-2.4,3.6-4.7,5.9c-4.7,3.5-9.5,3.5-16.6,0
	l-3.6-2.4l5.9-5.9v-2.4c-1.2-1.2-1.2-1.2-2.4-1.2c-1.1-1.2-1.1-1.2-1.1,0l-8.3,4.7l-5.9-1.2l29.6-23.7l7.1,2.4l-7.2,4.8l17.8,21.3
	l-8.3,1.2L787.1,674.1z M733.9,688.3l5.9,8.3l10.7-5.9l2.4,3.5l-10.7,6l1.2,2.4c1.2,1.2,1.2,2.4,0,2.4c0,0-1.2,1.2-1.2,0l-9.5-1.2
	h-1.2c0-1.2,0-1.2,1.2-2.4l1.2-1.2l-5.9-8.3l-7.1,1.2l-4.7-1.2l34.3-20.1l4.7,2.4l-5.9,3.6l15.4,22.5h-7.1l-14.3-19L733.9,688.3z
	 M716.1,691.9l4.7,2.4l-7.1,2.4l11.8,26l-8.3-1.2l-9.4-21.3l-8.3,3.5l7.1,14.2c0.2,1.3-0.3,2.6-1.2,3.5h-3.5l-8.3-2.4l-1.2-1.2
	c0-1.2,0-1.2,2.4-2.4l2.4-1.2l-3.5-8.3l-7.1,3.6l-5.9-3.6L716.1,691.9z M701.9,748.7l-1.2,1.2c-7.1-2.4-13-2.4-17.8-1.2
	c-0.9,0.1-1.8,0.5-2.4,1.2l-4.7-2.4c1.2-1.2,2.4-2.4,3.5-2.4c1.2-1.2,3.5-1.2,4.7-1.2h5.9C692.4,745.2,697.2,746.4,701.9,748.7z
	 M678.2,712l-7.1,2.4l2.4,8.3c0,0.6-0.5,1.2-1.1,1.2c0,0,0,0,0,0l-5.9,2.4c-7.1,1.2-9.5,4.7-8.3,8.3c0,1.2,1.2,2.4,3.5,3.6h5.9
	c0-0.6,0.5-1.2,1.1-1.2c0,0,0,0,0.1,0c0.6,0,1.2-0.5,1.2-1.1c0,0,0,0,0-0.1v-1.2c-0.6,0-1.2-0.5-1.2-1.1c0,0,0,0,0-0.1
	c-1.2-1.2-1.2-1.2,0-2.4h1.2c1.2-1.2,3.5-1.2,5.9,0c2.4,0,3.5,1.2,3.5,2.4s0,2.4-2.4,4.7l7.1,5.9l-2.4,1.2l-7.1-5.9
	c-1.2,1.2-2.4,1.2-4.7,2.4c-3.6,1.2-7.1,0-10.7-1.2c-3.6-2.4-7.1-4.8-8.3-8.3c0-2.4,0-4.7,1.2-5.9c2.4-1.2,3.5-2.4,5.9-3.5l8.3-2.4
	v-4.7l-20.1,4.7l-4.7-3.6l32-8.3L678.2,712z M617.8,725l1.2,10.7c1.4,0.8,3.1,1.2,4.7,1.2c2.6-1.2,5-2.8,7.1-4.7l1.2,5.9
	c-1.6,1.5-3.7,2.3-5.9,2.4c-3.5,0-4.8,0-7.1-1.2l-3.5,3.5l10.7,7.1l-1.2,1.2l-17.8-10.6c-1.3-0.1-2.3-1.1-2.4-2.4
	c0-1.2,1.2-2.4,2.4-3.6h2.4c0.6,0.7,1.5,1.1,2.4,1.2l-1.2-9.5l-10.7,1.2l-4.7-4.7l45-5.9l5.9,3.6l-9.5,2.4l3.6,26l-7.1-1.2
	l-3.5-23.6L617.8,725z M582.3,727.4H574v27.2l-7.1-4.7l1.2-22.5h-5.9l-2.4-4.7h18.9L582.3,727.4z M536.1,723.8l-1.2,11.8l11.8,1.2
	v4.7l-11.8-1.2l-1.2,2.4c0,1.2,0,2.4-1.2,2.4c-0.6,0-1.2-0.5-1.2-1.1c0,0,0,0,0,0l-7.1-7.1v-1.2c0.6-0.7,1.7-0.7,2.3,0c0,0,0,0,0,0
	h2.4l2.4-11.8l-8.3-1.2l-2.4-4.7l39.1,3.5l2.4,5.9l-7.1-1.2l-3.5,26l-5.9-3.6L548,725L536.1,723.8z M493.5,712l-2.4-1.2
	c-3.5-8.3-8.3-13-11.8-14.2h-1.2l-3.5-4.7c1.2-1.2,3.5-1.2,3.5-1.2c3.5,1.2,8.3,1.2,11.8,5.9C492.3,700.2,492.3,707.3,493.5,712
	L493.5,712z M503,719.1l-7.1-1.2l-8.3,26l-4.7-4.7l7.1-23.7l-5.9-1.2l-1.2-5.9l18.9,5.9L503,719.1z M453.3,701.3v-5.9l29.6,11.8
	l1.2,7.1l-5.9-3.5l-11.8,24.8l-4.8-5.9l9.5-21.3L453.3,701.3z M467.5,715.6l-8.3-3.5c-3.6-1.2-7.1-1.2-8.3,2.4
	c-0.1,4.1,0.7,8.1,2.4,11.9l-3.6,1.2c-3.5-8.3-3.5-14.2-2.4-18.9c1.2-3.6,5.9-3.6,11.9-1.2l9.5,4.7L467.5,715.6z M430.8,688.3
	l-5.9,8.3l3.5,3.5c2.4,1.2,5.9,1.2,8.3,1.2l-3.6,5.9c0-1.2-3.6-1.2-4.8-2.4c-3.5-2.4-4.7-3.5-5.9-5.9c-1.2,1.2-2.4,1.2-4.8,1.2
	l3.6,13h-2.4l-5.9-21.3v-1.2c1.2-1.2,2.4-2.4,3.5-1.2c1.2,1.2,2.4,1.2,2.4,2.4h1.2l4.7-7.1l-8.3-5.9l-1.2-5.9l37.9,22.5v5.9
	l-5.9-3.5l-14.2,23.7l-4.8-7.1l13-20.1L430.8,688.3z M416.6,678.9l-5.9-2.4l-16.6,21.3l-3.5-5.9l15.4-19l-4.7-3.5v-5.9l14.2,9.5
	L416.6,678.9z M396.4,684.8c-1.2,0-1.2,0-2.4-1.2l-3.6-3.5c-0.1,0.9-0.5,1.8-1.2,2.4c-1.6,1.5-3.7,2.3-5.9,2.4
	c-2.4,0-4.7-1.2-7.1-3.5c-4.7-3.5-7.1-10.7-5.9-20.1h2.4c0,3.5,0,5.9,1.2,8.3c0,3.5,1.2,5.9,3.5,7.1c1.2,1.2,2.4,1.2,4.7,1.2
	c2.4,1.2,3.5,0,3.5-1.2c2.4-1.2,2.4-3.5-1.2-4.7c0-0.6-0.5-1.2-1.1-1.2c0,0,0,0,0,0c0-1.2-1.2-1.2-2.4-1.2l-3.5-2.4l1.2-4.7
	c0-0.6,0.5-1.2,1.1-1.2c0,0,0,0,0.1,0c1.2,0,2.4,1.2,3.5,2.4h1.2v1.2h1.2c2.4,1.2,2.4,1.2,3.6,1.2c1.3,0.2,2.6-0.3,3.6-1.2
	c1.2-1.2,0-2.4-1.2-3.5c-2.4-1.2-5.9-2.4-9.5-4.7v-4.7c3.1,0.1,6,1.4,8.3,3.5c3.6,2.4,4.7,4.7,5.9,9.5c0,2.4,0,4.7-1.2,7.1
	c-1.2,0-1.2,0-2.4,1.2c-1.3,0.2-2.6-0.3-3.5-1.2c1.2,2.4,2.4,4.7,4.7,5.9c1.6,1.5,3.7,2.3,5.9,2.4L396.4,684.8z"/>
<path class="st13" d="M480.9,393.5l-0.8-2.3c0.5-0.1,11.2-3.7,16.3-1.1l-1.1,2.1C491.8,390.5,483.7,392.5,480.9,393.5z"/>
<path class="st13" d="M502.2,393.5l-0.8-2.3c0.5-0.1,11.2-3.7,16.3-1.1l-1,2.1C513.2,390.5,505,392.5,502.2,393.5z"/>
<path class="st13" d="M523.5,393.5l-0.8-2.3c0.5-0.1,11.2-3.7,16.3-1.1l-1.1,2.1C534.5,390.5,526.3,392.5,523.5,393.5z"/>
<path class="st13" d="M544.8,393.5l-0.8-2.3c0.5-0.1,11.2-3.7,16.3-1.1l-1.1,2.1C555.8,390.5,547.7,392.5,544.8,393.5z"/>
<path class="st13" d="M480.9,401.8l-0.8-2.3c0.4-0.1,11.2-3.7,16.3-1.1l-1.1,2.1C491.9,398.8,483.7,400.8,480.9,401.8z"/>
<path class="st13" d="M502.2,401.8l-0.8-2.3c0.5-0.1,11.2-3.7,16.3-1.1l-1,2.1C513.2,398.8,505,400.8,502.2,401.8z"/>
<path class="st13" d="M523.5,401.8l-0.8-2.3c0.5-0.1,11.2-3.7,16.3-1.1l-1.1,2.1C534.5,398.8,526.3,400.8,523.5,401.8z"/>
<path class="st13" d="M544.8,401.8l-0.8-2.3c0.5-0.1,11.2-3.7,16.3-1.1l-1.1,2.1C555.8,398.7,547.7,400.8,544.8,401.8z"/>
<path class="st13" d="M480.9,408.9l-0.8-2.2c0.5-0.1,11.2-3.7,16.3-1.1l-1.1,2.1C491.8,405.8,483.7,407.9,480.9,408.9z"/>
<path class="st13" d="M502.2,408.9l-0.8-2.2c0.5-0.1,11.2-3.7,16.3-1.1l-1,2.1C513.1,405.9,505,407.9,502.2,408.9z"/>
<path class="st13" d="M523.5,408.9l-0.8-2.2c0.5-0.1,11.2-3.7,16.3-1.1l-1.1,2.1C534.5,405.9,526.3,407.9,523.5,408.9z"/>
<path class="st13" d="M544.8,408.9l-0.8-2.2c0.5-0.1,11.2-3.7,16.3-1.1l-1.1,2.1C555.8,405.9,547.7,407.9,544.8,408.9z"/>
<path class="st13" d="M480.9,416l-0.8-2.2c0.5-0.1,11.2-3.7,16.3-1.1l-1.1,2.1C491.9,413,483.7,415,480.9,416z"/>
<path class="st13" d="M502.2,416l-0.8-2.2c0.5-0.1,11.2-3.7,16.3-1.1l-1,2.1C513.2,413,505,415,502.2,416z"/>
<path class="st13" d="M523.5,416l-0.8-2.2c0.5-0.1,11.2-3.7,16.3-1.1l-1.1,2.1C534.5,413,526.3,415,523.5,416z"/>
<path class="st13" d="M544.8,416l-0.8-2.2c0.5-0.1,11.2-3.6,16.3-1.1l-1.1,2.1C555.8,413,547.6,415,544.8,416z"/>
<path class="st13" d="M480.9,424.2l-0.8-2.2c0.5-0.1,11.2-3.7,16.3-1.1l-1.1,2.1C491.8,421.2,483.7,423.3,480.9,424.2z"/>
<path class="st13" d="M502.2,424.2l-0.8-2.2c0.5-0.1,11.2-3.7,16.3-1.1l-1,2.1C513.1,421.2,505,423.3,502.2,424.2z"/>
<path class="st13" d="M523.5,424.2l-0.8-2.2c0.5-0.1,11.2-3.7,16.3-1.1L538,423C534.5,421.2,526.3,423.3,523.5,424.2z"/>
<path class="st13" d="M544.8,424.2l-0.8-2.2c0.5-0.1,11.2-3.7,16.3-1.1l-1.1,2.1C555.8,421.2,547.7,423.3,544.8,424.2z"/>
<path class="st13" d="M480.9,431.4l-0.8-2.3c0.4-0.1,11.2-3.7,16.3-1.1l-1.1,2.1C491.9,428.4,483.7,430.4,480.9,431.4z"/>
<path class="st13" d="M502.2,431.4l-0.8-2.3c0.5-0.1,11.2-3.7,16.3-1.1l-1,2.1C513.2,428.4,505,430.4,502.2,431.4z"/>
<path class="st13" d="M523.5,431.4l-0.8-2.3c0.5-0.1,11.2-3.7,16.3-1.1l-1.1,2.1C534.5,428.4,526.3,430.4,523.5,431.4z"/>
<path class="st13" d="M544.8,431.4l-0.8-2.3c0.5-0.1,11.2-3.7,16.3-1.1l-1.1,2.1C555.8,428.3,547.7,430.4,544.8,431.4z"/>
<path class="st13" d="M480.9,438.5l-0.8-2.2c0.5-0.1,11.3-3.7,16.5,0.2l-1.4,1.9C491.7,435.7,483.7,437.5,480.9,438.5z"/>
<path class="st13" d="M502.2,438.5l-0.8-2.2c0.5-0.1,11.3-3.7,16.5,0.2l-1.4,1.9C513,435.7,505,437.5,502.2,438.5z"/>
<path class="st13" d="M523.5,438.5l-0.8-2.2c0.5-0.1,11.3-3.7,16.5,0.2l-1.4,1.9C534.3,435.7,526.3,437.5,523.5,438.5z"/>
<path class="st13" d="M544.8,438.5l-0.8-2.2c0.5-0.1,11.3-3.7,16.5,0.2l-1.4,1.9C555.6,435.7,547.6,437.5,544.8,438.5z"/>
<path class="st13" d="M480.9,445.6l-0.8-2.2c0.5-0.1,11.2-3.6,16.3-1.1l-1.1,2.1C491.8,442.6,483.7,444.6,480.9,445.6z"/>
<path class="st13" d="M502.2,445.6l-0.8-2.2c0.5-0.1,11.2-3.6,16.3-1.1l-1,2.1C513.2,442.5,505,444.6,502.2,445.6z"/>
<path class="st13" d="M523.5,445.6l-0.8-2.2c0.5-0.1,11.2-3.6,16.3-1.1l-1.1,2.1C534.5,442.5,526.3,444.6,523.5,445.6z"/>
<path class="st13" d="M544.8,445.6l-0.8-2.2c0.5-0.1,11.2-3.6,16.3-1.1l-1.1,2.1C555.8,442.5,547.7,444.6,544.8,445.6z"/>
<path class="st13" d="M480.9,452.7l-0.8-2.2c0.5-0.1,11.2-3.7,16.3-1.1l-1.1,2.1C491.9,449.7,483.7,451.7,480.9,452.7z"/>
<path class="st13" d="M502.2,452.7l-0.8-2.2c0.5-0.1,11.2-3.7,16.3-1.1l-1,2.1C513.2,449.7,505,451.7,502.2,452.7z"/>
<path class="st13" d="M523.5,452.7l-0.8-2.2c0.5-0.1,11.2-3.7,16.3-1.1l-1.1,2.1C534.5,449.7,526.3,451.7,523.5,452.7z"/>
<path class="st13" d="M544.8,452.7l-0.8-2.2c0.5-0.1,11.2-3.7,16.3-1.1l-1.1,2.1C555.8,449.7,547.7,451.7,544.8,452.7z"/>
<path class="st13" d="M481,460.9l-1-2.2c0.5-0.2,11.4-5,16.6-1l-1.4,1.9C491.8,457.1,483.8,459.7,481,460.9z"/>
<path class="st13" d="M502.3,460.9l-1-2.2c0.5-0.2,11.4-5,16.6-1l-1.4,1.9C513.1,457,505.1,459.7,502.3,460.9z"/>
<path class="st13" d="M523.6,460.9l-1-2.2c0.5-0.2,11.4-5,16.6-1l-1.4,1.9C534.4,457,526.4,459.7,523.6,460.9z"/>
<path class="st13" d="M544.9,460.9l-1-2.2c0.5-0.2,11.4-5,16.6-1l-1.4,1.9C555.7,457,547.7,459.7,544.9,460.9z"/>
<path class="st13" d="M480.9,468.1l-0.8-2.2c0.5-0.1,11.2-3.7,16.3-1.1l-1.1,2.1C491.9,465.1,483.7,467.1,480.9,468.1z"/>
<path class="st13" d="M502.2,468.1l-0.8-2.2c0.5-0.1,11.2-3.7,16.3-1.1l-1,2.1C513.2,465.1,505,467.1,502.2,468.1z"/>
<path class="st13" d="M523.5,468.1l-0.8-2.2c0.5-0.1,11.2-3.7,16.3-1.1l-1.1,2.1C534.5,465.1,526.3,467.1,523.5,468.1z"/>
<path class="st13" d="M544.8,468.1l-0.8-2.2c0.5-0.1,11.2-3.6,16.3-1.1l-1.1,2.1C555.8,465.1,547.6,467.1,544.8,468.1z"/>
<path class="st13" d="M480.9,475.2l-0.8-2.2c0.5-0.1,11.2-3.6,16.3-1.1l-1.1,2.1C491.8,472.2,483.7,474.2,480.9,475.2z"/>
<path class="st13" d="M502.2,475.2l-0.8-2.2c0.5-0.1,11.2-3.6,16.3-1.1l-1,2.1C513.2,472.2,505,474.2,502.2,475.2z"/>
<path class="st13" d="M523.5,475.2l-0.8-2.2c0.5-0.1,11.2-3.6,16.3-1.1l-1.1,2.1C534.5,472.2,526.3,474.2,523.5,475.2z"/>
<path class="st13" d="M544.8,475.2l-0.8-2.2c0.5-0.1,11.2-3.6,16.3-1.1l-1.1,2.1C555.8,472.2,547.7,474.2,544.8,475.2z"/>
<path class="st13" d="M481,483.4l-1-2.2c0.5-0.2,11.4-5,16.6-1l-1.4,1.9C491.8,479.5,483.8,482.2,481,483.4z"/>
<path class="st13" d="M502.3,483.4l-1-2.2c0.5-0.2,11.4-5,16.6-1l-1.4,1.9C513.1,479.5,505.1,482.2,502.3,483.4z"/>
<path class="st13" d="M523.6,483.4l-0.9-2.2c0.5-0.2,11.4-5,16.6-1l-1.4,1.9C534.4,479.5,526.4,482.2,523.6,483.4z"/>
<path class="st13" d="M544.9,483.4l-1-2.2c0.5-0.2,11.3-5,16.6-1l-1.4,1.9C555.7,479.5,547.7,482.2,544.9,483.4z"/>
<path class="st13" d="M480.9,490.6l-0.8-2.3c0.5-0.1,11.2-3.7,16.3-1.1l-1.1,2.1C491.8,487.5,483.7,489.6,480.9,490.6z"/>
<path class="st13" d="M502.2,490.6l-0.8-2.3c0.5-0.1,11.2-3.7,16.3-1.1l-1,2.1C513.2,487.5,505,489.6,502.2,490.6z"/>
<path class="st13" d="M523.5,490.6l-0.8-2.3c0.5-0.1,11.2-3.7,16.3-1.1l-1.1,2.1C534.5,487.5,526.3,489.6,523.5,490.6z"/>
<path class="st13" d="M544.8,490.6l-0.8-2.3c0.5-0.1,11.2-3.7,16.3-1.1l-1.1,2.1C555.8,487.5,547.7,489.6,544.8,490.6z"/>
<path class="st13" d="M480.9,497.7l-0.8-2.2c0.5-0.1,11.2-3.7,16.3-1.1l-1.1,2.1C491.9,494.7,483.7,496.7,480.9,497.7z"/>
<path class="st13" d="M502.2,497.7l-0.8-2.2c0.5-0.1,11.2-3.7,16.3-1.1l-1,2.1C513.2,494.7,505,496.7,502.2,497.7z"/>
<path class="st13" d="M523.5,497.7l-0.8-2.2c0.5-0.1,11.2-3.7,16.3-1.1l-1.1,2.1C534.5,494.7,526.3,496.7,523.5,497.7z"/>
<path class="st13" d="M544.8,497.7l-0.8-2.2c0.5-0.1,11.2-3.6,16.3-1.1l-1.1,2.1C555.8,494.7,547.6,496.7,544.8,497.7z"/>
<path class="st13" d="M481,505.9l-1-2.1c0.5-0.2,11.4-5,16.6-1l-1.4,1.9C491.7,502,483.8,504.7,481,505.9z"/>
<path class="st13" d="M502.3,505.9l-1-2.1c0.5-0.2,11.4-5,16.6-1l-1.4,1.9C513.1,502,505.1,504.7,502.3,505.9z"/>
<path class="st13" d="M523.6,505.9l-1-2.1c0.5-0.2,11.4-5,16.6-1l-1.4,1.9C534.4,502,526.4,504.7,523.6,505.9z"/>
<path class="st13" d="M544.9,505.9l-1-2.1c0.5-0.2,11.4-5,16.6-1l-1.4,1.9C555.7,502,547.7,504.7,544.9,505.9z"/>
<path class="st13" d="M607.6,393.5l-0.8-2.3c0.5-0.1,11.2-3.7,16.3-1.1l-1.1,2.1C618.5,390.5,610.4,392.5,607.6,393.5z"/>
<path class="st13" d="M628.9,393.5l-0.8-2.3c0.5-0.1,11.2-3.7,16.3-1.1l-1.1,2.1C639.8,390.5,631.7,392.5,628.9,393.5z"/>
<path class="st13" d="M650.1,393.5l-0.7-2.3c1.3-0.4,12.4-3.6,17.5-1.1l-1.1,2.1C662.3,390.4,653.3,392.5,650.1,393.5z"/>
<path class="st13" d="M671.5,393.5l-0.8-2.3c0.5-0.1,11.2-3.7,16.3-1.1l-1.1,2.1C682.5,390.5,674.3,392.5,671.5,393.5z"/>
<path class="st13" d="M607.6,401.8l-0.8-2.3c0.5-0.1,11.2-3.7,16.3-1.1l-1.1,2.1C618.5,398.7,610.4,400.8,607.6,401.8z"/>
<path class="st13" d="M628.9,401.8l-0.8-2.3c0.5-0.1,11.2-3.7,16.3-1.1l-1.1,2.1C639.8,398.8,631.7,400.8,628.9,401.8z"/>
<path class="st13" d="M650.1,401.8l-0.7-2.3c1.3-0.4,12.4-3.6,17.5-1.1l-1.1,2.1C662.3,398.7,653.3,400.8,650.1,401.8z"/>
<path class="st13" d="M671.5,401.8l-0.8-2.3c0.5-0.1,11.2-3.7,16.3-1.1l-1.1,2.1C682.5,398.7,674.3,400.8,671.5,401.8z"/>
<path class="st13" d="M607.6,408.9l-0.8-2.2c0.5-0.1,11.2-3.7,16.3-1.1l-1.1,2.1C618.5,405.9,610.4,407.9,607.6,408.9z"/>
<path class="st13" d="M628.9,408.9l-0.8-2.2c0.5-0.1,11.2-3.7,16.3-1.1l-1.1,2.1C639.8,405.9,631.7,407.9,628.9,408.9z"/>
<path class="st13" d="M650.1,408.9l-0.7-2.3c1.3-0.4,12.4-3.6,17.5-1.1l-1.1,2.1C662.3,405.8,653.3,407.9,650.1,408.9z"/>
<path class="st13" d="M671.5,408.9l-0.8-2.2c0.5-0.1,11.2-3.7,16.3-1.1l-1.1,2.1C682.5,405.9,674.3,407.9,671.5,408.9z"/>
<path class="st13" d="M607.6,416l-0.8-2.2c0.5-0.1,11.2-3.7,16.3-1.1l-1,2.1C618.5,413,610.4,415,607.6,416z"/>
<path class="st13" d="M628.9,416l-0.7-2.2c0.5-0.1,11.2-3.7,16.3-1.1l-1.1,2.1C639.8,413,631.7,415,628.9,416z"/>
<path class="st13" d="M650.1,416l-0.7-2.3c1.3-0.4,12.4-3.6,17.5-1.1l-1.1,2.1C662.3,413,653.3,415,650.1,416z"/>
<path class="st13" d="M671.5,416l-0.8-2.2c0.5-0.1,11.2-3.6,16.3-1.1l-1.1,2.1C682.4,413,674.3,415,671.5,416z"/>
<path class="st13" d="M607.6,424.2l-0.8-2.2c0.5-0.1,11.2-3.7,16.3-1.1l-1.1,2.1C618.5,421.2,610.4,423.3,607.6,424.2z"/>
<path class="st13" d="M628.9,424.2l-0.8-2.2c0.5-0.1,11.2-3.7,16.3-1.1l-1.1,2.1C639.8,421.2,631.7,423.3,628.9,424.2z"/>
<path class="st13" d="M650.1,424.2l-0.7-2.3c1.3-0.4,12.4-3.6,17.5-1.1l-1.1,2.1C662.3,421.2,653.3,423.3,650.1,424.2z"/>
<path class="st13" d="M671.5,424.2l-0.8-2.2c0.5-0.1,11.2-3.7,16.3-1.1L686,423C682.5,421.2,674.3,423.3,671.5,424.2z"/>
<path class="st13" d="M607.6,431.4l-0.8-2.3c0.5-0.1,11.2-3.7,16.3-1.1l-1.1,2.1C618.5,428.3,610.4,430.4,607.6,431.4z"/>
<path class="st13" d="M628.9,431.4l-0.8-2.3c0.5-0.1,11.2-3.7,16.3-1.1l-1.1,2.1C639.8,428.4,631.7,430.4,628.9,431.4z"/>
<path class="st13" d="M650.1,431.4l-0.7-2.3c1.3-0.4,12.4-3.6,17.5-1.1l-1.1,2.1C662.3,428.3,653.3,430.4,650.1,431.4z"/>
<path class="st13" d="M671.5,431.4l-0.8-2.3c0.5-0.1,11.2-3.7,16.3-1.1l-1.1,2.1C682.5,428.3,674.3,430.4,671.5,431.4z"/>
<path class="st13" d="M607.6,438.5l-0.8-2.2c0.5-0.1,11.3-3.7,16.5,0.2l-1.4,1.9C618.4,435.7,610.4,437.5,607.6,438.5z"/>
<path class="st13" d="M628.9,438.5l-0.8-2.2c0.5-0.1,11.3-3.7,16.5,0.2l-1.4,1.9C639.7,435.7,631.7,437.5,628.9,438.5z"/>
<path class="st13" d="M650.1,438.5l-0.7-2.3c0.5-0.1,12.5-3.7,17.6,0.2l-1.4,1.9C662.2,435.7,653.3,437.5,650.1,438.5z"/>
<path class="st13" d="M671.5,438.5l-0.8-2.2c0.5-0.1,11.3-3.7,16.5,0.2l-1.4,1.9C682.3,435.7,674.3,437.5,671.5,438.5z"/>
<path class="st13" d="M607.6,445.6l-0.8-2.2c0.5-0.1,11.2-3.6,16.3-1.1l-1.1,2.1C618.5,442.6,610.4,444.6,607.6,445.6z"/>
<path class="st13" d="M628.9,445.6l-0.7-2.2c0.5-0.1,11.2-3.6,16.3-1.1l-1.1,2.1C639.8,442.5,631.7,444.6,628.9,445.6z"/>
<path class="st13" d="M650.1,445.6l-0.7-2.3c1.3-0.4,12.4-3.6,17.5-1.1l-1.1,2.1C662.3,442.6,653.3,444.6,650.1,445.6z"/>
<path class="st13" d="M671.5,445.6l-0.8-2.2c0.5-0.1,11.2-3.6,16.3-1.1l-1.1,2.1C682.5,442.5,674.3,444.6,671.5,445.6z"/>
<path class="st13" d="M607.6,452.7l-0.8-2.2c0.5-0.1,11.2-3.7,16.3-1.1l-1.1,2.1C618.5,449.7,610.4,451.7,607.6,452.7z"/>
<path class="st13" d="M628.9,452.7l-0.8-2.2c0.5-0.1,11.2-3.7,16.3-1.1l-1.1,2.1C639.8,449.7,631.7,451.7,628.9,452.7z"/>
<path class="st13" d="M650.1,452.7l-0.7-2.3c1.3-0.4,12.4-3.6,17.5-1.1l-1.1,2.1C662.3,449.6,653.3,451.7,650.1,452.7z"/>
<path class="st13" d="M671.5,452.7l-0.8-2.2c0.5-0.1,11.2-3.7,16.3-1.1l-1.1,2.1C682.5,449.7,674.3,451.7,671.5,452.7z"/>
<path class="st13" d="M607.7,460.9l-1-2.2c0.5-0.2,11.4-5,16.6-1l-1.4,1.9C618.4,457,610.5,459.7,607.7,460.9z"/>
<path class="st13" d="M629,460.9l-1-2.2c0.5-0.2,11.4-5,16.6-1l-1.4,1.9C639.8,457,631.8,459.7,629,460.9z"/>
<path class="st13" d="M650.3,460.9l-0.9-2.2c1.3-0.5,12.6-4.9,17.7-1l-1.4,1.9C662.2,457,653.4,459.7,650.3,460.9z"/>
<path class="st13" d="M671.6,460.9l-1-2.2c0.5-0.2,11.3-5,16.6-1l-1.4,1.9C682.4,457,674.4,459.7,671.6,460.9z"/>
<path class="st13" d="M607.6,468.1l-0.8-2.2c0.5-0.1,11.2-3.7,16.3-1.1l-1,2.1C618.5,465.1,610.4,467.1,607.6,468.1z"/>
<path class="st13" d="M628.9,468.1l-0.7-2.2c0.5-0.1,11.2-3.7,16.3-1.1l-1.1,2.1C639.8,465.1,631.7,467.1,628.9,468.1z"/>
<path class="st13" d="M650.1,468.1l-0.7-2.3c1.3-0.4,12.4-3.6,17.5-1.1l-1.1,2.1C662.3,465.1,653.3,467.1,650.1,468.1z"/>
<path class="st13" d="M671.5,468.1l-0.8-2.2c0.5-0.1,11.2-3.7,16.3-1.1l-1.1,2.1C682.4,465.1,674.3,467.1,671.5,468.1z"/>
<path class="st13" d="M607.6,475.2l-0.8-2.2c0.5-0.1,11.2-3.6,16.3-1.1l-1.1,2.1C618.5,472.2,610.4,474.2,607.6,475.2z"/>
<path class="st13" d="M628.9,475.2l-0.7-2.2c0.5-0.1,11.2-3.6,16.3-1.1l-1.1,2.1C639.8,472.2,631.7,474.2,628.9,475.2z"/>
<path class="st13" d="M650.1,475.2l-0.7-2.3c1.3-0.4,12.4-3.6,17.5-1.1l-1.1,2.1C662.3,472.2,653.3,474.2,650.1,475.2z"/>
<path class="st13" d="M671.5,475.2l-0.8-2.2c0.5-0.1,11.2-3.6,16.3-1.1l-1.1,2.1C682.5,472.2,674.3,474.2,671.5,475.2z"/>
<path class="st13" d="M607.7,483.4l-1-2.2c0.5-0.2,11.3-5,16.6-1l-1.4,1.9C618.5,479.6,610.5,482.2,607.7,483.4z"/>
<path class="st13" d="M629,483.4l-1-2.2c0.5-0.2,11.4-5,16.6-1l-1.4,1.9C639.8,479.5,631.8,482.2,629,483.4z"/>
<path class="st13" d="M650.2,483.4l-0.9-2.2c1.3-0.5,12.6-4.9,17.7-1l-1.4,1.9C662.2,479.5,653.4,482.2,650.2,483.4z"/>
<path class="st13" d="M671.6,483.4l-0.9-2.2c0.5-0.2,11.3-5,16.6-1l-1.4,1.9C682.4,479.5,674.4,482.2,671.6,483.4z"/>
<path class="st13" d="M607.6,490.6l-0.8-2.3c0.5-0.1,11.2-3.7,16.3-1.1l-1.1,2.1C618.5,487.5,610.4,489.6,607.6,490.6z"/>
<path class="st13" d="M628.9,490.6l-0.8-2.3c0.5-0.1,11.2-3.7,16.3-1.1l-1.1,2.1C639.8,487.5,631.7,489.6,628.9,490.6z"/>
<path class="st13" d="M650.1,490.6l-0.7-2.3c1.3-0.4,12.4-3.6,17.5-1.1l-1.1,2.1C662.3,487.5,653.3,489.6,650.1,490.6z"/>
<path class="st13" d="M671.5,490.6l-0.8-2.3c0.5-0.1,11.2-3.7,16.3-1.1l-1.1,2.1C682.5,487.5,674.3,489.6,671.5,490.6z"/>
<path class="st13" d="M607.6,497.7l-0.8-2.2c0.5-0.1,11.2-3.7,16.3-1.1l-1,2.1C618.5,494.7,610.4,496.7,607.6,497.7z"/>
<path class="st13" d="M628.9,497.7l-0.7-2.2c0.5-0.1,11.2-3.7,16.3-1.1l-1.1,2.1C639.8,494.7,631.7,496.7,628.9,497.7z"/>
<path class="st13" d="M650.1,497.7l-0.7-2.3c1.3-0.4,12.4-3.6,17.5-1.1l-1.1,2.1C662.3,494.7,653.3,496.7,650.1,497.7z"/>
<path class="st13" d="M671.5,497.7l-0.8-2.2c0.5-0.1,11.2-3.6,16.3-1.1l-1.1,2.1C682.4,494.7,674.3,496.7,671.5,497.7z"/>
<path class="st13" d="M607.7,505.9l-1-2.1c0.5-0.2,11.4-5,16.6-1l-1.4,1.9C618.5,502,610.5,504.7,607.7,505.9z"/>
<path class="st13" d="M629,505.9l-1-2.1c0.5-0.2,11.4-5,16.6-1l-1.4,1.9C639.8,502,631.8,504.7,629,505.9z"/>
<path class="st13" d="M650.2,505.9l-0.9-2.2c1.3-0.5,12.6-4.9,17.7-1l-1.4,1.9C662.2,502,653.4,504.7,650.2,505.9z"/>
<path class="st13" d="M671.6,505.9l-1-2.1c0.5-0.2,11.3-5,16.6-1l-1.4,1.9C682.4,502,674.4,504.7,671.6,505.9z"/>
</svg>
