<?xml version="1.0" encoding="utf-8"?>
<!-- Generator: Adobe Illustrator 26.4.1, SVG Export Plug-In . SVG Version: 6.00 Build 0)  -->
<svg version="1.0" width="1200" height="947.21" id="katman_1" xmlns="http://www.w3.org/2000/svg" xmlns:xlink="http://www.w3.org/1999/xlink" x="0px" y="0px"
	 viewBox="70 0 700.89 595.28" style="enable-background:new 0 0 841.89 595.28;" xml:space="preserve" >
<style type="text/css">
	.st0{fill:#FFFFFF;}
	.st1{fill:#FFD750;}
	.st2{fill:none;stroke:#221F20;stroke-width:4.0933;}
	.st3{fill:#CD1744;}
	.st4{fill:#221F20;}
</style>
<path class="st0" d="M140.99,381.43l-1.73-0.8c-19.2-8.89-34.71-21.81-44.84-37.35c-24.28-37.26-25.09-75.75-25.93-116.5
	c-0.07-3.09-0.14-6.18-0.21-9.29l-0.11-4.21h145.55l-0.1,4.21c-0.08,3.13-0.14,6.24-0.21,9.35c-0.86,40.72-1.66,79.19-25.94,116.44
	c-10.11,15.52-25.58,28.42-44.76,37.35L140.99,381.43z"/>
<polygon points="232.03,271.3 247.2,271.3 260.51,314.83 274.94,271.11 287.05,271.11 301.47,314.83 314.8,271.3 329.59,271.3 
	307.62,336.05 295.33,336.05 280.83,294 266.3,336.05 253.99,336.05" fill="white"/>
<path d="M366.87,309.13l-8.53-20.85l-8.54,20.85H366.87z M351.98,271.29h13.06l27.54,64.76H377.8l-5.88-14.43h-27.19l-5.88,14.43
	h-14.43L351.98,271.29z" fill="white"/>
<polygon points="408,284.8 388.44,284.8 388.44,271.76 441.72,271.76 441.72,284.8 422.17,284.8 422.17,336.05 408,336.05 " fill="white"/>
<polygon points="452.48,271.76 500.98,271.76 500.98,284.32 466.54,284.32 466.54,297.37 496.86,297.37 496.86,309.97 
	466.54,309.97 466.54,323.47 501.44,323.47 501.44,336.05 452.48,336.05 " fill="white"/>
<path d="M545.13,302.99c6.9,0,10.85-3.68,10.85-9.09v-0.19c0-6.06-4.24-9.19-11.13-9.19h-14.04v18.48L545.13,302.99L545.13,302.99z
	 M516.65,271.76h29.4c8.17,0,14.51,2.29,18.74,6.53c3.58,3.57,5.51,8.61,5.51,14.67v0.19c0,10.39-5.59,16.92-13.78,19.95l15.7,22.95
	h-16.54l-13.77-20.57h-11.11v20.57h-14.15C516.65,336.05,516.65,271.76,516.65,271.76z" fill="white"/>
<polygon points="585.91,271.76 600.05,271.76 600.05,323.2 630.16,323.2 630.16,336.05 585.91,336.05 " fill="white"/>
<path d="M685.89,304.09v-0.19c0-11.01-8.07-20.21-19.47-20.21s-19.3,9-19.3,20.03v0.18c0,11.03,8.08,20.23,19.48,20.23
	C677.99,324.12,685.89,315.12,685.89,304.09 M632.33,304.09v-0.19c0-18.27,14.43-33.25,34.28-33.25c19.83,0,34.08,14.79,34.08,33.08
	v0.18c0,18.29-14.43,33.26-34.27,33.26S632.33,322.37,632.33,304.09" fill="white"/>
<path d="M758.22,304.09v-0.19c0-11.01-8.09-20.21-19.49-20.21c-11.38,0-19.29,9-19.29,20.03v0.18c0,11.03,8.09,20.23,19.47,20.23
	C750.3,324.12,758.22,315.12,758.22,304.09 M704.66,304.09v-0.19c0-18.27,14.42-33.25,34.25-33.25c19.85,0,34.09,14.79,34.09,33.08
	v0.18c0,18.29-14.43,33.26-34.27,33.26C718.9,337.16,704.66,322.37,704.66,304.09" fill="white"/>
<g>
	<path d="M267.92,239.22v-16.94h6.53v16.76c0,4.82,2.4,7.31,6.38,7.31c3.98,0,6.39-2.42,6.39-7.1v-16.98h6.52V239
		c0,8.97-5.05,13.37-13,13.37C272.79,252.37,267.92,247.93,267.92,239.22z" fill="white"/>
	<path d="M311.08,222.28h6.01l13.89,18.24v-18.24h6.43v29.63h-5.55l-14.35-18.84v18.84h-6.43L311.08,222.28L311.08,222.28z" fill="white"/>
	<path d="M355.94,222.28h6.52v29.63h-6.52V222.28z" fill="white"/>
	<path d="M378.46,222.28h7.19l7.75,20.87l7.74-20.87h7.03l-11.97,29.83h-5.76L378.46,222.28z" fill="white"/>
	<path d="M423.86,222.28h22.35v5.8h-15.88v6.01h13.97v5.8h-13.97v6.23h16.08v5.8h-22.56L423.86,222.28L423.86,222.28z" fill="white"/>
	<path d="M463.36,222.28h13.54c3.77,0,6.68,1.06,8.63,3.01c1.65,1.65,2.54,3.97,2.54,6.76v0.09c0,4.77-2.58,7.78-6.35,9.19
		l7.24,10.58h-7.62l-6.34-9.49h-5.13v9.49h-6.51C463.36,251.92,463.36,222.28,463.36,222.28z M476.47,236.68
		c3.17,0,4.99-1.7,4.99-4.2v-0.09c0-2.78-1.94-4.23-5.11-4.23h-6.48v8.51H476.47z" fill="white"/>
	<path d="M503.05,247.59l3.85-4.61c2.66,2.2,5.46,3.6,8.84,3.6c2.67,0,4.28-1.06,4.28-2.8v-0.09c0-1.64-1.02-2.49-5.97-3.77
		c-5.96-1.52-9.82-3.18-9.82-9.06v-0.08c0-5.38,4.32-8.94,10.37-8.94c4.32,0,8,1.35,11.01,3.77l-3.39,4.91
		c-2.62-1.82-5.2-2.92-7.71-2.92c-2.49,0-3.81,1.14-3.81,2.58v0.08c0,1.95,1.28,2.59,6.4,3.89c6.01,1.56,9.4,3.73,9.4,8.89v0.09
		c0,5.88-4.49,9.18-10.88,9.18C511.13,252.34,506.6,250.77,503.05,247.59z" fill="white"/>
	<path d="M543.59,222.28h6.51v29.63h-6.51V222.28z" fill="white"/>
	<path d="M575.55,228.29h-9.02v-6.01h24.55v6.01h-9.02v23.62h-6.51V228.29z" fill="white"/>
	<path d="M615.54,240.23l-11.38-17.95h7.61l7.07,11.89l7.19-11.89h7.4l-11.38,17.82v11.81h-6.52V240.23z" fill="white"/>
	<path d="M670.47,237.19v-0.07c0-8.44,6.65-15.33,15.8-15.33c9.13,0,15.69,6.81,15.69,15.24v0.1c0,8.42-6.65,15.31-15.79,15.31
		C677.04,252.42,670.47,245.61,670.47,237.19z M695.15,237.19v-0.07c0-5.09-3.73-9.32-8.97-9.32c-5.24,0-8.89,4.15-8.89,9.23v0.1
		c0,5.07,3.73,9.3,8.98,9.3C691.51,246.41,695.15,242.27,695.15,237.19z" fill="white"/>
	<path d="M715.97,222.28h22.56v5.93h-16.05v6.31h14.14v5.93h-14.14v11.47h-6.51V222.28z" fill="white"/>
</g>
<path class="st1" d="M197.3,309.86l-56.32-42.52l-55.85,44.02c-10.37-29.47-9.97-60.15-10.74-91.63h133.12
	C206.76,250.67,207.13,280.84,197.3,309.86z"/>
<path class="st1" d="M189.59,328.08c-2.02,3.92-4.28,7.8-6.8,11.68c-10.15,15.58-25.23,27.11-41.8,34.81
	c-16.65-7.7-31.72-19.23-41.86-34.81c-2.18-3.34-4.16-6.69-5.95-10.06l47.81-40.3L189.59,328.08z"/>
<path class="st2" d="M140.99,374.58c-16.65-7.7-31.72-19.23-41.86-34.81c-24.75-37.96-23.72-78.3-24.73-120.04h133.12
	c-1.02,41.75,0.01,82.08-24.73,120.04C172.64,355.35,157.56,366.87,140.99,374.58z"/>
<path class="st3" d="M102.05,242.53c-6.75-1.43-12.75-6.44-11.3-12.81c0.01-0.06-0.26-1.65-0.84-1.86
	c-0.05-0.02-0.15-0.19-0.25-0.22c-0.26-0.06-0.47-0.18-0.69-0.34c-0.07-0.05-0.39-0.16-0.39-0.27c-0.12,0.26-0.09,0.51-0.27,0.74
	c-0.07,0.09-0.17,0.22-0.27,0.27c-0.12,0.06-0.13,0.17-0.22,0.26c-0.51,0.51-0.23,1.28-0.16,1.86c0.02,0.15,0.09,0.33-0.1,0.37
	c-0.22,0.03-0.04-0.07-0.29-0.22c-0.06-0.04-0.15-0.13-0.21-0.16c-0.11-0.05-0.53-0.11-0.6-0.22c-0.07-0.11-0.04-0.14-0.14-0.23
	c-0.23-0.21-0.26-0.63-0.43-1.07c-0.03-0.07-0.1-0.45-0.1-0.54c0-0.42-1.1-1.12-0.67-0.76c0.15,0.12-0.02-0.17-0.61-0.32
	c-0.37-0.1-0.8-0.08-1.22-0.01c-0.09,0.01-0.17,0.07-0.23,0.11c-0.42,0.34-0.83,0.74-1.39,0.76c0.09-0.07,0.14,0.05,0.19,0.11
	c0.27,0.33,0.07,0.76,0.23,1.14c0.16,0.37,0.43,0.65,0.74,0.91c0.31,0.23,0.85-0.08,1.09,0.34c0,0,0.5,0.12,0,0.61
	c-0.9,0.92-1.91,0.18-2.67,1.88c1.14-0.49,1.27,1.24,1.75,1.31c2.17,0.29,3.83,0.67,5.02,2.88c0.73,1.34-1.3,1.41,0.53,1.72
	c0.94,0.16,1.56,0.64,2.03,1.29c0.5,0.69,0.56,1.63,1.1,2.28c0.38,0.47,0.53,0.55,0.99,0.94c0.21,0.17,0.87,0.34,1.13,0.4
	c0.25,0.07,0.4,0.2,0.63,0.29c0.25,0.09,0.52,0.18,0.74,0.36c0.18,0.15,0.65,0.31,0.75,0.52c0.19,0.37,0.04,0.74,0.24,1.12
	c0.06,0.1,0.36,0.01,0.47,0.05c0.11,0.05,0.37,0.06,0.44,0.05c0.44-0.1,0.55-0.14,0.88-0.17c0.5-0.06,0.44,0.1,1.09,0.07
	c0.14,0,0.19,0.1,0.38,0.1c0.12,0,0.34,0.13,0.38,0.02c0.2-0.61,0.53-1.22,0.88-1.82c0.37-0.6,0.33-0.66,0.8-1.29
	C101.45,242.99,102.11,242.53,102.05,242.53"/>
<path class="st3" d="M85.22,243.31c1.98,1.06,1.71,3.69,3.48,4.54c3.18,1.51,6.95,2.54,10.32,0.89c-0.75,2.34,0.07,4.3-0.25,4.57
	c-1.05,0.84-4.27-0.17-6.33-0.98c-1.42-0.56-2.57,1.55-4.13,1.37c0.07-0.2,0.26-0.73,0.15-1.07c-0.25-0.76-0.45-0.97-1.71-0.82
	c-0.82,0.09-0.48,0.75-1.7,1.36c-0.49-0.28-1.52-0.61-1.67,0.31c-0.07,0.43-0.93-1.48-0.76-1.81c0.81-1.45,0.96-1.78,0.91-2.09
	c-0.1-0.48-1.83-1.11-2.05-0.71c-0.55,0.94-2.15-3.07,2.56-2.8c-1.26-0.82-1.12-0.96-0.83-1.92c0.04-0.14-0.44-0.63-0.76-0.29
	c-0.11-0.38,0.14-0.77,0.43-0.81C83.67,242.92,84.43,242.89,85.22,243.31"/>
<path class="st3" d="M94.58,233.62c2.86,0.66,7.13-3.02,9.6,1.32C102.35,234.27,96.95,237.17,94.58,233.62"/>
<path class="st3" d="M118.45,239.93c-0.05,3.72-3.91,7.73-0.78,11.28c-1.28-0.02-2.8-0.47-3.68-1.18c-0.5-0.4-0.38,1.77-0.32,2.22
	c0.06,0.38-2.37-2.29-3.29-1.65c-2.58,1.86-3.7,2.62-7.53,2.76c-1.06,0.04-1.62,0.9-1.92,1.83c-0.87-1.78-0.23-5.82,0.27-7.61
	c1.36-4.92,6.3-6.38,10.26-8.74c2.84-1.68,4.06-4.99,3.91-8.22C117.41,233.17,118.5,236.77,118.45,239.93"/>
<path class="st3" d="M100.32,281.82c0.48,0.11,0.12,0.51-0.07,0.64c-0.38,0.26-0.67,0.58-0.91,0.97c-0.19,0.3-0.32,0.61-0.25,0.97
	c0.04,0.27,0.13,0.49,0.23,0.75c0.07,0.15,0.2,0.23,0.31,0.36c0.06,0.05,0.23,0.26,0.23,0.28c-0.1-0.37,0.42-0.75,0.54-0.69
	c2.45,1.43,2.6-1.46,4.07-2.44c0.62-0.42,2.03,0.07,1.67,1.34c1.46-0.79,1.89-2.75,3.04-3.99c2.52-2.74,6.06-4.56,9.42-6.04
	c-1.22-1.28-3.01-2.38-3.91-3.85c-0.45-0.74-0.98-2.17,0.01-1.9c4.13,1.07,6.44-1.44,6.89-4.69c6.12,0.8,7.71-4.98,8.53-9.35
	c0.4-2.12,1.56-2.31,0.29-5.91c-0.53-1.51,2.71-2.01,2.15-4.62c-0.15-0.72-1.04-1.44-1.56-1.52c0.5,1.41-1.85,1.75-2.12,2.33
	c-0.39,0.91-0.98,1.62-1.05,2.56c-1.99-2.75-0.38-6.07,1.49-8.65c2.72-3.76,8.38-1.79,10.77,0.64c0.05-1.21-0.9-2.75-1.67-3.5
	c2.23-0.29,4.64,1.07,7.68-0.53c1.75-0.94,3.52-1.74,4.34-3.81c-3.73,0.51-8.78-2.36-12.15-2.95c-6.26-1.09-10.46,3.19-12.71,8.28
	c-2.23,5.09-0.81,8.89,1.62,12.7c0.61,0.96-2.15,0.33-3.24,0.9c-1.06,0.55-1.49,1.85-1.25,3.01c1.33-1.43,4.88-0.55,5.2,1.91
	c0.43,3.3-2.91,8.13-6.13,6.69c-3.45-1.55-5.41-5.2-6.56-9.29c-2.96,2.54-8.41,0.44-10.95,2.92c-2.41,2.36,3.76,3.96,6.16,5.08
	c0.88,0.42,1.77,1.32,1.63,2.44c-3.76-2.2-8.29,0.29-8.08,4.32c0.17,3.01,3.85,4.87,6.91,5.13c1.28,0.11,2.05,1.52,0.49,2.49
	c-2.71,1.7-5.75,3.6-8.68,0.52c-0.49-0.52-2.24-0.18-2.59,0.75c-0.16,0.46-0.22,1.15-0.15,1.6c0.16-0.27,0.35-0.67,0.59-0.64
	c0.29,0.04,0.64,0.35,0.6,0.56c-0.25,1.5-2.23,0.53-2.85,1.7c-0.01,0.02-0.04,0.05-0.06,0.08c-0.04,0.09-0.09,0.17-0.13,0.26
	c-0.4,0.79-0.95,1.3,0.04,1.91c-0.02-0.15,0.49,0.64,0.48,0.77c0.05-0.73,0.8-0.71,0.8-0.71l0.44,0.05L100.32,281.82z"/>
<path class="st3" d="M87.58,267.67c-0.38-0.12-0.79,0.02-1.18,0.2c-0.25,0.1-0.54-0.01-0.69,0.23c-0.08,0.16-0.15,0.32-0.09,0.49
	c0.02,0.1,0.06,0.26,0.14,0.32c-0.52-0.05-1-0.39-1.4-0.75c-0.12-0.11-0.21-0.25-0.33-0.37c-0.07-0.09-0.07-0.24-0.11-0.35
	c-0.06-0.13-0.04-0.26-0.04-0.39c-0.01-0.36-0.02-0.72,0.14-1.05c0.07-0.15,0.14-0.3,0.26-0.44c0.08-0.11,0.17-0.19,0.27-0.28
	c0.26-0.26,0.55-0.45,0.91-0.55c0.5-0.15,1.06-0.11,1.54,0.1c0.38,0.17,0.86,0.15,1.26,0.26c0.22,0.06,0.62-0.56,0.33-0.64
	c-1.29-0.31-1.28-0.65-1.76-1.96c-0.22-0.25-0.52,0.05-0.64,0.17c-0.01-2.49,2.95-2.65,4.18-1.67c1.83,1.47,0.45,4.35,2.7,5.14
	c1.17,0.41,2.41,0.73,3.61,0.22c2.17-0.92,0.01-3.11,0.71-4.94c1.42-3.73,4.55-3.92,8.29-0.34c-3.34,1.11-4.9,5.53-3.08,8.45
	c-2.94-1.17-6.66,0.79-8.74,2.11c1.93-1.93-0.77-3.48-1.46-3.14l-0.81,0.57c-0.39,0.5-0.43,1.01-0.91,1.5
	c-0.27,0.26-0.42,0.3-0.79,0.39c-0.49,0.14-0.79,0.1-1.23-0.18c-0.08-0.05-0.33,0.06-0.39,0.12c-0.24,0.29-0.01,0.44-0.01,0.54
	c-0.05-0.03-0.35-0.28-0.39-0.31c-0.28-0.21-0.6-0.39-0.77-0.68c-0.17-0.27-0.29-1-0.1-1.4c0.2-0.38,0.59-0.51,0.85-0.78
	c0.25-0.24-0.05-0.63-0.35-0.67"/>
<path class="st3" d="M159.31,234.82c0.27,0.18-0.02,0.65-0.32,0.74c-0.36,0.11-0.86-0.05-1.18,0.07c-1.4,0.52-1.41,3.97-1.21,3.57
	c0.21-0.45,1.25-0.15,1.92-0.03c1.08,0.23,1.9-1.99,2.62-1.92c1.69,0.16,3.27,2.26,3.91,3.63c0.11,0.26-0.71,0.26-0.77,1.11
	c2.31-0.22,4.25,1.28,5.91,2.64c0.81-1.41,1.63-2.28,2.55-3.19c-3.45-3.37-10.33-4.4-9.27-10.55c0.14-0.79-0.75-1.48-1.14-1.86
	c-0.44-0.42-1.47-0.45-2.09-0.6c0.66,1.36-0.53,1.49-0.36,3.66c0,0.07-0.2,0.02-0.27-0.01c-0.41-0.18-0.77-0.44-1.15-0.68
	c-0.36-0.22-0.69-0.15-1.09-0.11c-0.23,0.04-0.45,0.15-0.66,0.29c-0.33,0.23-0.49,0.54-0.72,0.86c-0.04,0.06-0.09,0.13-0.14,0.19
	c-0.07,0.08-0.22,0.3-0.23,0.43c0.18-0.01,0.74,0.03,0.83,0.17c0.16,0.25,0.17,0.53,0.36,0.78c0.23,0.31,0.43,0.31,0.78,0.46
	c0.54,0.22,1.01,0.32,1.61,0.28"/>
<path class="st3" d="M168.25,232.35c2.16-0.16,4.3-1.82,6.69,0.98c-0.44-0.21-0.96-0.28-1.23-0.07c-2.64,2.13-5.85,1.41-7.54-1.23
	C166.87,231.93,167.7,232.39,168.25,232.35"/>
<path class="st3" d="M177.6,240.18c3.55-1.79,7.14-3.23,8.59-7.64c0.28-0.86,0.94,1.28,0.99,1.41c1.87,5.37-1.86,10.71-1.09,16.19
	c-1.25-0.76-2.66-1.29-4.03-1.33c-4.87-0.14-6.02,2.82-6.29,2.55c-1.34-1.36-5.17-2.5-4.89-2.26
	C168.59,246.99,175.16,241.43,177.6,240.18"/>
<path class="st3" d="M167.9,275.93c0.49,0.75-0.16-0.43,0.39,0.85c2.58-1.08,5.23-2.29,8.07-1.15c-1.25-5.77,2.97-7.17,3.3-8.04
	c0.53-1.39-2.28-4.14-4.41-3.37c-2.71,0.97-1.58,4.39-2.1,6.78c-0.28,1.33-1.92,2.29-3.28,1.83c-2.24-0.78-3.15-2.86-3.69-5.21
	c-0.37-1.55-3.41-1.74-4.07-0.47c-1.87,3.62,1.11-0.42,0.92,2.33c-0.03,0.47-2.18,0.13-2.66,1.75c-0.33,1.11,0.73,1.86,2.05,2.24
	c0.25,0.08-0.26-0.54,0.08-0.68c0.24-0.08,1.22,0.43,1.1,0.49c-1.28,0.78-1.61,2.59,0.67,3.38c0.02,0-0.17-0.66,0-0.78
	c1.79-1.33,3.66,0.1,3.66,0.06"/>
<path class="st3" d="M129.28,312.45c2.14,0.99,2.82-0.07,5.64-0.53c0.38-0.07,1.97,0.97,2.43,1.49
	C134.53,313.86,131.1,316.3,129.28,312.45"/>
<path class="st3" d="M128.14,314.7c-0.13-0.14-0.32-0.21-0.5-0.27c-0.17-0.08-0.36-0.13-0.56-0.17c-0.04-0.01-0.4-0.09-0.45-0.11
	c-0.01,0.13,0.15,0.46,0.06,0.53c-0.22,0.21-0.3,0.16-0.49,0.43c-0.06,0.1-0.13,0.21-0.16,0.33c-0.05,0.25-0.16,0.53-0.2,0.81
	c-0.01,0.14,0.06,0.48,0.08,0.61c0.02,0.07,0.17,0.37,0.21,0.45c0,0,0.34,0.37,0.32,0.35c0.4,0.4,0.08,0.17,0.56,0.65
	c0.25,0.24-0.11,0.66-0.36,0.58c-1.65-0.48-1.88-2.39-3.39-2.98c-1.09-0.42-2.67,0.43-2.84,2.1c0.37-0.11,0.76,0.04,0.82,0.35
	c0.4,1.68,2.87,0.67,2.92,1.85c0.05,0.77-1.84-0.13-2.59,0.36c-0.98,0.66-1.12,2.55-0.25,3.66c0.9-0.86,2.01,0.39,2.88-0.23
	c0.61-0.43,0.82-1.05,1.45-1.32c1.89-0.83,2.45,0.91,2.03,2.65c1.02-0.48,3.42-0.96,3.97-1.13c1-0.26,1.05-2.56,2.27-3.41
	c-1.73-0.01-3.87-0.76-4.36-2.45c-0.04-0.18,0.08-0.39,0.1-0.59c0.04-0.65-0.02-1.26-0.26-1.86c-0.02-0.06-0.09-0.13-0.13-0.21
	c-0.07-0.1-0.12-0.2-0.2-0.3c-0.17-0.23-0.43-0.34-0.67-0.5c-0.1-0.06-0.24-0.08-0.33-0.2"/>
<path class="st3" d="M115.42,326.61c0.75,1.47-2.97-0.88-4.37,1.29c-0.45,0.7-0.21,2.28-0.21,3.16c0.86-0.77,1.71,0.7,3.31-0.71
	c0.18,0.16,0.37,0.26,0.12,0.51c-0.59,0.6-0.92,1.34-0.61,2.05c0.2,0.47,1.53,1.41,1.53,1.34c0.14-0.97,1.78,0,2.04-1.89
	c0.11-0.79,0.34-2.07,1.46-1.6c1.03,0.42,1.24,1.59,1,2.74c1.64-0.54,4.51-2.21,6.24-0.97c2.31,1.67,6.11,2.35,8.81,3.19
	c-1.8-1.24-2.37-4.49-2.06-6.61c-4.26,0.83-8.74,0.69-12.68-1.14c-1.08-0.5-0.93-1.75-1.26-2.77c-0.37-1.15-1.83-2.22-3.15-2.13
	c-0.71,0.06-2.42,1.56-2.09,1.62c-0.11-0.03-0.11,0.22-0.16,0.32c0.32-0.2,0.72,0,0.87,0.35c0.1,0.23,0.21,0.5,0.41,0.7
	C114.87,326.31,115.29,326.36,115.42,326.61"/>
<path class="st3" d="M125.63,349.89c0.82-1.02,1.51-0.48,1.86-0.47c0.86,0.03,0.81,1.25,0.72,2.02c3.39-1.63,6.61-3.97,10.59-3.12
	c-2.32-2.42-1.5-7.62,1.77-8.26c0.01,0-2.11-0.35-2.33-0.49c-2.85-1.8-6.32-3.52-8.23,0.25c-0.95,1.87,0.8,3.39,2.1,4.95
	c0.23,0.28-0.15,0.44-0.45,0.53c-3.12,0.8-8.84,1.26-9.1-3.39c-0.02-0.47-1.23-0.86-2-0.83c-2.31,0.07-2.27,3.01-2.01,2.81
	c0.51-0.39,2.05-0.26,1.86,0.93c-0.17,1.1-2.32-0.59-3.18,0.52c-0.72,0.92-0.7,2.44-0.2,3.46c-0.09-0.38,0.34-0.66,0.57-0.7
	c2.39-0.39,2.52,0.43,1.82,2.75c-0.05,0.17,0.7,1.63,1.21,1.76c-0.05-0.02-0.04-0.33,0.03-0.44c0.07-0.11,0.19-0.2,0.31-0.23
	c0.26-0.1,0.52-0.07,0.79-0.14c0.12-0.05,0.21-0.12,0.33-0.2c0.18-0.11,0.32-0.28,0.45-0.44c0.55-0.7,1.04-1.6,1.98-1.69
	c0.44-0.04,0.71,0.15,1.08,0.39"/>
<path class="st3" d="M150.33,360.68c2.18-2.17,3.77-5.06,6.1-7.18c-2.56-1.51-5.73-3.08-6.07-6.46c-0.03-0.23,0.36-0.48,0.44-0.44
	c3.56,2,8.36,2.15,10.93-1.48c2.07-2.93,2.97-7.71,7.01-7.97c-1.34-2.59,0.17-5.57,2.38-6.93c-0.75-0.28-1.71-0.9-2.54-0.74
	c-1.02,0.17-1.46,1.56-2.63,1.78c1.83-6.16-1.7-14.77-8.49-14.62c-1.27,0.02-2.92,1.05-3.34,2.44c-0.39,1.31-0.59,2.96,0.36,4.08
	c2.22,2.66,3.83,5.56,3.13,9.08c1.59-1.37,3.04-3.38,2.99-5.52c-0.01-0.54,0.96-0.16,1.11-0.37c1.86-2.73-1.18-4.41-2.78-6.12
	c-0.45-0.47,0.69-1.18,0.83-1.12c5.82,1.73,6.37,8.9,3.87,13.56c-0.66-0.83-3.13-0.55-3.96-0.84c2.73,1.37,2.02,1.57,1.9,2.02
	c-0.2,0.82-2.64,0.46-3.12,1.07c-0.82,1.04-1.43,1.51-1.5,4.97c1.13-1.21,2.61-3.07,4.21-2.25c3.43,1.77-0.17,7.69-3.4,8.67
	c-2.76,0.83-5.31-0.04-7.02-2.45c-2.48-3.48-0.68-7.69-2.43-11.21c-1.47,0.36-1.13,2.27-1.9,1.93c-2.69-1.25-4.22-4.13-6.17-6.54
	c-0.81,0.29-1.16,1.04-1.94,1.01c-1.15-0.05-3.33-0.42-3.79,0.17c-0.53,0.67-0.93,5.56,3.83,7.33c3.23,1.2,5.78,2.28,7.82,4.8
	c-1.36,0.11-1.84-0.55-2.95-0.6c-1.1-0.04-1.79,0.39-2.62,0.82c-0.8,0.42-1.72,1.96-1.56,3.2c0.74,5.93,7.69,5.99,10.89,9.75
	c0.55,0.63-0.84,3.2-2.15,4.24c-1.12,0.89-3.79-1.34-3.36-3.23c0.36-1.51-3.3-2.52-4.57-0.8c0.5-0.05,0.64,0.28,0.59,0.53
	c-0.23,1.39,1.5,1.44,1.45,2.15c-0.07,0.97-0.92-0.42-1.59-0.53c-1.46-0.31-2.93,0.21-3.79,1.4c-0.25,0.36-0.83,0.93-0.58,1.53
	c1.13-0.55,1.71,1.2,2.76,0.67c0.65-0.33,1.16-0.9,1.94-0.7c0.31,0.08,0.62,0.5,0.34,0.69c-2.05,1.31-3.69,3.15-2.21,5.25
	c0.05-0.49,0.43-0.83,0.74-0.92c0.6-0.16,1.39,0.24,1.98,0.05c0.95-0.32,0.46-1.28,0.83-1.95c0.56-1.07,2.5-2.85,3.6-1.55
	c0.2,0.23,0.04,1.09-0.54,1.11c0.6-0.02,1.14,0.57,1.65,0.45c0.15-0.01,0.3-0.01,0.43-0.08c0.11-0.06,0.24-0.09,0.33-0.18
	c0.24-0.25,0.52-0.5,0.55-0.88c0.44,0.04,1,0.07,1.29-0.29c0.28-0.37,0.63-0.67,0.94-0.95"/>
<path class="st3" d="M140.42,317.86c3.81-1.07,8.05-3.05,8.96-7.29c1.15,0.7,1.52,2.28,1.53,3.25c0.09,5.3-2.23,9.89-1.1,15.45
	c0.12,0.63,1.27,2.6,0.75,2.37c-0.64-0.28-1.98-1.55-2.71-0.96c-0.92,0.72-0.86,1.87-1.31,1.6c-1.68-1.01-3.45-2.53-4.26-4.46
	c-0.31-0.74-0.18-2.3-0.39-2.09c-1.27,1.39-3.88,1.69-5.81,1.98c0.44-0.39,0.83-1.97,0.76-2.29c-1.52-0.76-3.71,1.84-3.66,1.51
	c0.07-0.83,0.17-1.1,0.25-1.33C134.56,322.27,136.69,318.89,140.42,317.86"/>
<path class="st3" d="M112.08,227.46c0.99-0.03,1.72-0.64,2.35-1.3c-0.05,0.55,0.77,1.34,0.47,1.94c-0.37,0.74-1.34,1.2-1.52,1.89
	c-0.4,1.41,0.75,2.8-0.09,4.2c-2.45,4.15-7.79,2.78-11.45,3.68c0.26-0.44-0.06-1.1-0.34-1.29c1.62,0.21,3.78-0.14,4.22-1.37
	c0.52-1.51,0.79-2.63,0.08-3.87c-1.16-2.06-3.59-1.1-5.42-0.38c-0.28-1.27,0.91-2.05,1.6-2.22c1.93-0.51,3.68-1.35,5.49-2.02
	C109.05,226.12,110.47,227.49,112.08,227.46 M109.38,229.52c0.16-0.07,0.24-0.18,0.22-0.2c-1.38-1.94-3.04-1.74-3.75-0.02
	C105.37,230.46,108.15,230.09,109.38,229.52"/>
<path class="st3" d="M182.62,235.27c-0.52,0.45-1.4,0.43-1.99,0.84c-0.36,0.26-0.69,0.51-1.07,0.74c-0.17,0.1-0.7,0.33-0.89,0.39
	c-0.54,0.13-0.42,0.07-0.91,0.13c-0.29,0.04-0.43,0.06-0.72,0.06c-0.29,0-1.2,0.03-1.48,0.02c-0.69-0.01-0.81,0.04-1.51-0.07
	c-0.39-0.07-0.78-0.17-1.16-0.31c-0.25-0.07-0.52-0.12-0.79-0.12c0.03-0.29,0.06-0.58,0.28-0.77c0.29-0.24,0.35-0.02,0.77-0.06
	c0.02,0,0.6,0.05,0.63,0.05c0.09-0.01,0.21-0.01,0.32-0.01c0.17-0.03,0.33-0.07,0.49-0.15c0.22-0.1,0.44-0.16,0.63-0.31
	c0.06-0.07,0.14-0.11,0.21-0.18c0.14-0.12,0.33-0.19,0.45-0.35c0.39-0.49,0.69-0.96,0.73-1.57c0.04-0.47,0.07-0.94,0-1.41
	c-0.02-0.07-0.03-0.15-0.04-0.22c-0.03-0.37-0.21-0.7-0.39-1.05c-1.06-2.02-3.6-0.05-5.34-0.13c0-0.38-0.04-1.09,0.16-1.34
	c1.24-1.61,3.16-0.81,4.16-1.55c3.35-2.49,4.24-0.7,7.75,0.27c1.05,0.29,2.55-0.37,3.54-0.8c0.25-0.1,0.24,1.48,0.12,1.8
	c-0.42,1.11-1.57,1.06-1.97,2.05c-0.59,1.47-0.68,3.53-2.23,4.26 M180.2,228.78C180.35,228.7,180.08,228.9,180.2,228.78
	c-1.51-0.76-3.48-1.75-4.17,0.26C175.52,230.52,178.89,229.49,180.2,228.78"/>
<path class="st3" d="M145.24,307.05c1.55,0.37,3.24,0.41,4.24-0.95c0.5,2.11-1.43,2.37-1.78,3.39c-0.54,1.56-0.51,3.13-2.02,3.94
	c-3.02,1.61-6.79,3.54-10.25,3.81c0.03-0.42-0.26-1.2,0.29-1.23c1.21-0.05,2.15-0.95,2.43-1.67c0.37-1-0.05-3.42-0.96-3.89
	c-1.04-0.55-1.96,0.29-2.91,0.71c-0.4-1.07,1.25-2.82,3.85-2.67c-0.07,0,1.28-1.47,1.22-1.43
	C141.03,305.91,142.89,306.5,145.24,307.05 M140.63,309.76c0.6,0.22,2.38-0.76,3.02-1.12c0.15-0.08,0.27-0.24,0.39-0.37
	c0.01-0.01-0.01-0.05-0.04-0.05c-0.51-0.11-0.97-0.15-1.47-0.22c-0.37-0.04-0.65-0.28-1.03-0.36c-0.09-0.02-0.19-0.01-0.28,0.03
	c-0.14,0.06-0.2,0.16-0.31,0.22c-0.18,0.08-0.43,0.08-0.6,0.22c-0.16,0.16-0.31,0.3-0.36,0.52c-0.07,0.24-0.01,0.6,0.16,0.81
	C140.24,309.62,140.44,309.7,140.63,309.76"/>
<path class="st3" d="M192.27,292.36c-0.05-0.51,1.23-2.03,1.26-3.15c0.12-3.79,2.41-5.58,2.48-9.64c0.01-1.06-4.37-2.05-4.56-4.34
	c-0.09-1.13-0.47-2.76,0.67-2.75c1.45,0.03,2.88-0.22,3.91-1.13c4.58-4.04,0.71-9.56,0.16-14.42c-0.12-1.07,1.85-3.36,1.8-4.12
	c-0.32-4.13-1.08-7.9,0.39-11.96c-1.15,1.03-1.5,2.74-2.47,3.61c-0.47,0.43-0.7-0.52-0.67-0.68c0.58-3.57,2-6.7,3.66-10.08
	c1.96-4.03,0.97-7.3-2.65-8.49c-3.31-1.1-6.51,1.98-6.88,5.16c-0.33,2.9,0.58,6.39,1.27,8.78c0.19,0.69,0.07,1.48,0.22,2.09
	c0.6-2.4,0.66-4.91,0.62-7.46c-0.01-0.63,0.49-1.45,1.12-1.64c2.15-0.62,3.27,0.94,3.13,2.15c-0.47,3.82-1.25,6.73-2.15,10.51
	c-1.04,4.34,0.51,8.62,0.96,12.81c-1.66-0.97-3.46-1.02-4.1,1.56c-0.35,1.38,0.89,2.82,1.27,4.03c0.04-1.64,1.59-3.9,3.11-2.89
	c1.86,1.23,1.93,7.16,1.52,7.95c-0.91,1.71-2.39,2.94-4.45,2.33c-1.16-0.34-0.69-2.06-1.39-2.78c-3.7-3.83-5.39-8.39-5.7-13.69
	c-0.05-0.77,0.36-2.8,0.25-2.83c-4.84-2-7.06-0.01-9.08,2.83c-0.34-0.86-2.18-2.07-2.33-1.8c-0.91,1.71-0.65,4.79,0.72,5.98
	c3.73,3.24,7.43,5.4,9.52,10.01c-2.24,0.29-4.43,0.93-5.28,3.27c-0.9,2.45-0.59,5.84,1.99,6.83c2.11,0.81,5.71-0.09,6.5,0.01
	c2.23,0.29,4.73,2.21,4.38,4.32c-0.02,0.1-0.96,5.04-3.09,3.82c-1.16-0.66-0.51-3.37-2.27-3.78c-2.37-0.59-2.95,2.73-2.66,2.44
	c0.76-0.71,1.28,0.47,2.75,1.29c-4.96-1.08-3.42,3.47-3.24,2.97c0.26-0.72,1.16,0.02,2.94-0.09c0.07,0-0.39,0.37-0.41,0.39
	c-0.28,0.47-0.42,0.69-0.62,1.18c-0.1,0.22-0.09,0.47-0.06,0.71c0.03,0.23,0.11,0.46,0.24,0.67c0.02,0.05,0.07,0.07,0.12,0.11
	c0.02,0.01,0.09,0.12,0.11,0.12c0.1,0.01-0.1-0.35,0.19-0.37c0.07-0.01,0.28-0.04,0.33-0.02c0.13,0.05,0.31,0.14,0.44,0.17
	c0.13,0.04,0.26,0.07,0.4,0.08c0.34,0.05,0.46,0.05,0.75-0.05c0.25-0.1,0.5-0.14,0.74-0.31c-0.31,0.21,0.36-0.33,0.33-0.26
	c0.3-0.66,0.49-0.47,0.56-0.59c0.53-1.01,0.98-1.1,2.15-0.96c0.12,0.02,0.33,0.26,0.4,0.36c0.08,0.12,0.32,0.76,0.28,0.52
	C191.94,291.62,192.23,291.92,192.27,292.36"/>
<path class="st3" d="M156.46,246.63c-0.3-0.2-0.4-0.66-0.62-0.85c-0.05-0.07-0.11-0.14-0.18-0.22c-0.1-0.1-0.16-0.26-0.19-0.4
	c-0.21-0.71-0.1-1.56,0.54-2.02c0.03-0.02,0.02-0.06,0.03-0.08c0.04-0.07,0.13-0.1,0.15-0.16c0.02-0.06,0.12-0.06,0.09-0.14
	c0.04,0.02,0.05-0.04,0.06-0.06c0.13-0.16,0.13-0.46-0.11-0.54c0.2,0.02,0.41,0,0.62,0.06c0.08,0.02,0.17,0.04,0.24,0.05
	c0.79,0.1,1.77,0.45,1.98,1.25l0.27,0.3c0.82,1.91,0.54,6.57,5.09,7.69c2.37,0.58,4.75,1.32,7.18,1.28
	c-0.58,2.36-0.58,5.36,1.29,7.08c-2.72-1.49-4.54-1.18-6.92-3.42c-1.05-1-3.52-2.38-4.71-2.17c-0.49,0.09,0.68-1.57-0.41-1.89
	c-0.72-0.22-2.64-0.17-2.97,0.32c-1.57,2.37-3.23,2.36-3.78,2.83c0.65-0.54-2.57-3.17,1.42-4.58c0.38-0.14,0.52-1.01,0.05-1.23
	c-0.78-0.37-1.43,0.17-2.2,0.62c-0.88,0.53-1.09-1.39-2.47-0.67c-0.29-4.1,3.37-4.46,5.55-1.89c0.15,0.19,0.76-0.05,0.51-0.27
	L156.46,246.63z"/>
<polygon class="st4" points="84.35,308.27 140.98,263.23 197.71,307.03 195.38,314.04 140.98,272.54 87.1,315.72 "/>
<polygon class="st4" points="91.59,326.78 140.98,286.35 190.64,324.69 187.25,331.49 140.98,295.95 95.05,333.26 "/>
</svg>
